<svg width="32" height="32" viewBox="0 0 32 32" fill="none" xmlns="http://www.w3.org/2000/svg">
<path fill-rule="evenodd" clip-rule="evenodd" d="M16.2644 30.0001H16.2617C14.7671 29.9988 13.3524 29.3401 12.279 28.1441C11.9097 27.7348 11.943 27.1015 12.3537 26.7335C12.7644 26.3628 13.3964 26.3961 13.7657 26.8081C14.4564 27.5775 15.3431 28.0001 16.2631 28.0001H16.2644C17.1884 28.0001 18.0791 27.5775 18.7711 26.8068C19.1417 26.3975 19.7737 26.3641 20.1831 26.7335C20.5937 27.1028 20.6271 27.7361 20.2577 28.1455C19.1804 29.3415 17.7631 30.0001 16.2644 30.0001Z" fill="#212121"/>
<mask id="mask0_8_21" style="mask-type:luminance" maskUnits="userSpaceOnUse" x="4" y="1" width="25" height="24">
<path fill-rule="evenodd" clip-rule="evenodd" d="M4 1.33334H28.6625V24.464H4V1.33334Z" fill="white"/>
</mask>
<g mask="url(#mask0_8_21)">
<path fill-rule="evenodd" clip-rule="evenodd" d="M16.3293 3.33334C11.6694 3.33334 8.42135 6.98401 8.42135 10.26C8.42135 13.032 7.65202 14.3133 6.97202 15.444C6.42668 16.352 5.99602 17.0693 5.99602 18.628C6.21868 21.1427 7.87869 22.464 16.3293 22.464C24.7333 22.464 26.4453 21.084 26.6667 18.5413C26.6627 17.0693 26.232 16.352 25.6867 15.444C25.0067 14.3133 24.2373 13.032 24.2373 10.26C24.2373 6.98401 20.9893 3.33334 16.3293 3.33334ZM16.3293 24.464C10.0947 24.464 4.46002 24.024 4.00002 18.7133C3.99602 16.516 4.66668 15.3987 5.25868 14.4147C5.85735 13.4173 6.42135 12.4773 6.42135 10.26C6.42135 5.94934 10.4027 1.33334 16.3293 1.33334C22.256 1.33334 26.2373 5.94934 26.2373 10.26C26.2373 12.4773 26.8013 13.4173 27.4 14.4147C27.992 15.3987 28.6627 16.516 28.6627 18.628C28.1973 24.024 22.564 24.464 16.3293 24.464Z" fill="#212121"/>
</g>
</svg>
