<svg width="28" height="28" viewBox="0 0 28 28" fill="none" xmlns="http://www.w3.org/2000/svg">
<path fill-rule="evenodd" clip-rule="evenodd" d="M14.2313 26.25H14.229C12.9211 26.2488 11.6833 25.6725 10.7441 24.626C10.421 24.2678 10.4501 23.7137 10.8095 23.3917C11.1688 23.0673 11.7218 23.0965 12.045 23.457C12.6493 24.1302 13.4251 24.5 14.2301 24.5H14.2313C15.0398 24.5 15.8191 24.1302 16.4246 23.4558C16.749 23.0977 17.302 23.0685 17.6601 23.3917C18.0195 23.7148 18.0486 24.269 17.7255 24.6272C16.7828 25.6737 15.5426 26.25 14.2313 26.25" fill="#212121"/>
<mask id="mask0_241_12752" style="mask-type:luminance" maskUnits="userSpaceOnUse" x="3" y="1" width="23" height="21">
<path fill-rule="evenodd" clip-rule="evenodd" d="M3.50012 1.16667H25.0799V21.406H3.50012V1.16667Z" fill="white"/>
</mask>
<g mask="url(#mask0_241_12752)">
<path fill-rule="evenodd" clip-rule="evenodd" d="M14.2883 2.91667C10.2108 2.91667 7.3688 6.11101 7.3688 8.97751C7.3688 11.403 6.69564 12.5242 6.10064 13.5135C5.62347 14.308 5.24664 14.9357 5.24664 16.2995C5.44147 18.4998 6.89397 19.656 14.2883 19.656C21.6418 19.656 23.1398 18.4485 23.3335 16.2237C23.33 14.9357 22.9531 14.308 22.476 13.5135C21.881 12.5242 21.2078 11.403 21.2078 8.97751C21.2078 6.11101 18.3658 2.91667 14.2883 2.91667M14.2883 21.406C8.83297 21.406 3.90264 21.021 3.50014 16.3742C3.49664 14.4515 4.08347 13.4738 4.60147 12.6128C5.1253 11.7402 5.6188 10.9177 5.6188 8.97751C5.6188 5.20567 9.10247 1.16667 14.2883 1.16667C19.4741 1.16667 22.9578 5.20567 22.9578 8.97751C22.9578 10.9177 23.4513 11.7402 23.9751 12.6128C24.4931 13.4738 25.08 14.4515 25.08 16.2995C24.6728 21.021 19.7436 21.406 14.2883 21.406" fill="#212121"/>
</g>
</svg>
