<svg width="16" height="16" viewBox="0 0 16 16" fill="none" xmlns="http://www.w3.org/2000/svg">
<path fill-rule="evenodd" clip-rule="evenodd" d="M13.0725 12.4984H8.82119C8.54519 12.4984 8.32119 12.7224 8.32119 12.9984C8.32119 13.2744 8.54519 13.4984 8.82119 13.4984H13.0725C13.3485 13.4984 13.5725 13.2744 13.5725 12.9984C13.5725 12.7224 13.3485 12.4984 13.0725 12.4984Z" fill="#F5484A"/>
<path fill-rule="evenodd" clip-rule="evenodd" d="M6.24461 5.15941C6.3109 5.07123 6.43608 5.05339 6.52437 5.11954L9.97768 7.70647C10.0662 7.77274 10.0841 7.89821 10.0177 7.98661L6.80459 12.2665C6.03125 13.2998 4.86459 13.5065 4.05792 13.5065C3.55792 13.5065 3.19792 13.4265 3.15792 13.4198C3.07125 13.3998 2.99125 13.3398 2.94459 13.2598C2.89792 13.1732 1.75125 11.1332 3.03125 9.43317L6.24461 5.15941Z" fill="#F5484A"/>
<path fill-rule="evenodd" clip-rule="evenodd" d="M11.3046 6.27316L10.8579 6.86698C10.7916 6.95513 10.6665 6.97296 10.5782 6.90683L7.1243 4.31947C7.03604 4.25335 7.01795 4.12826 7.08387 4.03985L7.53126 3.43983C7.99126 2.81983 8.70459 2.49316 9.42459 2.49316C9.91792 2.49316 10.4113 2.6465 10.8379 2.9665C11.3379 3.3465 11.6646 3.89983 11.7579 4.51983C11.8446 5.1465 11.6846 5.7665 11.3046 6.27316Z" fill="#F5484A"/>
</svg>
