<svg width="25" height="24" viewBox="0 0 25 24" fill="none" xmlns="http://www.w3.org/2000/svg">
<path fill-rule="evenodd" clip-rule="evenodd" d="M12.3889 12.619H12.4209C15.3489 12.619 17.7299 10.238 17.7299 7.31C17.7299 4.382 15.3489 2 12.4209 2C9.49189 2 7.10989 4.382 7.10989 7.307C7.09989 10.227 9.4669 12.61 12.3889 12.619ZM8.53789 7.31C8.53789 5.169 10.2799 3.428 12.4209 3.428C14.5609 3.428 16.3019 5.169 16.3019 7.31C16.3019 9.45 14.5609 11.192 12.4209 11.192H12.3919C10.2599 11.184 8.53089 9.444 8.53789 7.31Z" fill="#9E9E9E"/>
<path fill-rule="evenodd" clip-rule="evenodd" d="M4.49988 18.1733C4.49988 21.8703 10.4619 21.8703 12.4209 21.8703C15.8199 21.8703 20.3399 21.4893 20.3399 18.1933C20.3399 14.4963 14.3799 14.4963 12.4209 14.4963C9.02088 14.4963 4.49988 14.8773 4.49988 18.1733ZM5.99988 18.1733C5.99988 16.7283 8.15988 15.9963 12.4209 15.9963C16.6809 15.9963 18.8399 16.7353 18.8399 18.1933C18.8399 19.6383 16.6809 20.3703 12.4209 20.3703C8.15988 20.3703 5.99988 19.6313 5.99988 18.1733Z" fill="#9E9E9E"/>
</svg>
