<svg width="20" height="20" viewBox="0 0 20 20" fill="none" xmlns="http://www.w3.org/2000/svg">
<mask id="mask0_250_15106" style="mask-type:luminance" maskUnits="userSpaceOnUse" x="2" y="1" width="15" height="19">
<path fill-rule="evenodd" clip-rule="evenodd" d="M2.5 1.66667H16.699V19.0389H2.5V1.66667Z" fill="white"/>
</mask>
<g mask="url(#mask0_250_15106)">
<path fill-rule="evenodd" clip-rule="evenodd" d="M6.95154 2.91667C4.82738 2.91667 3.74988 3.73501 3.74988 5.35084V17.6208C3.74988 17.6992 3.79488 17.7417 3.83238 17.7633C3.86988 17.7867 3.92904 17.8033 3.99738 17.765L9.31571 14.7817C9.50571 14.6758 9.73821 14.675 9.92904 14.7825L15.2015 17.7608C15.2707 17.8008 15.3299 17.7825 15.3674 17.76C15.4049 17.7375 15.449 17.695 15.449 17.6167V5.50334C15.449 4.86417 15.449 2.91667 12.2507 2.91667H6.95154ZM3.91571 19.0392C3.66988 19.0392 3.42404 18.9733 3.20071 18.8417C2.76154 18.5858 2.49988 18.1283 2.49988 17.6208V5.35084C2.49988 3.00917 4.12238 1.66667 6.95154 1.66667H12.2507C15.0774 1.66667 16.699 3.06584 16.699 5.50334V17.6167C16.699 18.125 16.4374 18.5825 15.9974 18.8383C15.559 19.095 15.0307 19.1 14.5874 18.85L9.62071 16.0442L4.60821 18.8558C4.39154 18.9775 4.15404 19.0392 3.91571 19.0392Z" fill="white"/>
</g>
<path fill-rule="evenodd" clip-rule="evenodd" d="M12.6163 8.52376H6.51794C6.17294 8.52376 5.89294 8.24376 5.89294 7.89876C5.89294 7.55376 6.17294 7.27376 6.51794 7.27376H12.6163C12.9613 7.27376 13.2413 7.55376 13.2413 7.89876C13.2413 8.24376 12.9613 8.52376 12.6163 8.52376Z" fill="white"/>
</svg>
