<svg width="24" height="24" viewBox="0 0 24 24" fill="none" xmlns="http://www.w3.org/2000/svg">
<path d="M17.0002 6.00019C16.735 6.00019 16.4806 6.10554 16.2931 6.29308C16.1055 6.48062 16.0002 6.73497 16.0002 7.00019V14.5902L7.71019 6.29019C7.52188 6.10188 7.26649 5.99609 7.00019 5.99609C6.73388 5.99609 6.47849 6.10188 6.29019 6.29019C6.10188 6.47849 5.99609 6.73388 5.99609 7.00019C5.99609 7.26649 6.10188 7.52188 6.29019 7.71019L14.5902 16.0002H7.00019C6.73497 16.0002 6.48062 16.1055 6.29308 16.2931C6.10554 16.4806 6.00019 16.735 6.00019 17.0002C6.00019 17.2654 6.10554 17.5198 6.29308 17.7073C6.48062 17.8948 6.73497 18.0002 7.00019 18.0002H17.0002C17.1309 17.9986 17.26 17.9714 17.3802 17.9202C17.6245 17.8187 17.8187 17.6245 17.9202 17.3802C17.9714 17.26 17.9986 17.1309 18.0002 17.0002V7.00019C18.0002 6.73497 17.8948 6.48062 17.7073 6.29308C17.5198 6.10554 17.2654 6.00019 17.0002 6.00019Z" fill="#212121"/>
</svg>
