<svg width="28" height="28" viewBox="0 0 28 28" fill="none" xmlns="http://www.w3.org/2000/svg">
<path fill-rule="evenodd" clip-rule="evenodd" d="M15.4164 5.6898C11.1321 6.8694 6.67262 8.45352 4.72898 9.57544C4.26472 9.84344 4.16221 10.0222 4.1439 10.0616C4.15253 10.0918 4.18636 10.1644 4.3043 10.2895C4.52048 10.5188 4.90135 10.7877 5.45011 11.0766C5.98714 11.3594 6.63327 11.6348 7.33418 11.8953C8.73569 12.4164 10.2969 12.8565 11.5176 13.1678C12.1258 13.323 12.6449 13.445 13.0114 13.5281C13.1945 13.5697 13.3393 13.6014 13.4378 13.6227L13.5497 13.6467L13.5776 13.6525L13.5858 13.6542C13.9275 13.725 14.1948 13.9921 14.2655 14.3338L14.2673 14.3422L14.2732 14.3702L14.2971 14.4821C14.3184 14.5805 14.3502 14.7253 14.3917 14.9085C14.4748 15.2749 14.5969 15.7941 14.752 16.4022C15.0634 17.623 15.5035 19.1841 16.0245 20.5857C16.2851 21.2866 16.5605 21.9327 16.8432 22.4697C17.1321 23.0185 17.4011 23.3994 17.6303 23.6155C17.7554 23.7335 17.828 23.7673 17.8582 23.7759C17.8976 23.7576 18.0764 23.6551 18.3444 23.1909C19.4663 21.2472 21.0504 16.7877 22.23 12.5034C22.8158 10.3758 23.291 8.33056 23.5546 6.70743C23.6867 5.89391 23.7621 5.20748 23.7759 4.67974C23.7814 4.46936 23.7768 4.29513 23.7647 4.15517C23.6247 4.14303 23.4505 4.1384 23.2401 4.1439C22.7124 4.15772 22.0259 4.23315 21.2124 4.36526C19.5893 4.62884 17.544 5.104 15.4164 5.6898ZM17.8749 23.7781C17.875 23.7787 17.8712 23.7791 17.8631 23.7772C17.8707 23.7765 17.8748 23.7775 17.8749 23.7781ZM12.6738 15.246C12.6576 15.2423 12.6411 15.2386 12.6242 15.2348C12.2455 15.1489 11.711 15.0232 11.0851 14.8635C9.83763 14.5454 8.2091 14.0876 6.72437 13.5357C5.98216 13.2597 5.26104 12.9548 4.63482 12.6251C4.02033 12.3016 3.44195 11.9259 3.031 11.49C2.62145 11.0556 2.25777 10.4219 2.43798 9.6645C2.60518 8.96175 3.1795 8.44925 3.8541 8.05982C6.00797 6.81656 10.6579 5.18484 14.9518 4.00258C17.1133 3.40745 19.2244 2.91517 20.9319 2.63789C21.7837 2.49956 22.5562 2.41121 23.1943 2.3945C23.5134 2.38615 23.8161 2.39517 24.0879 2.4301C24.3491 2.46369 24.6382 2.52788 24.8945 2.66437C25.048 2.74614 25.1737 2.87182 25.2555 3.02535C25.392 3.28163 25.4561 3.57072 25.4897 3.83196C25.5247 4.10372 25.5337 4.40642 25.5253 4.72553C25.5086 5.36366 25.4203 6.13614 25.2819 6.98794C25.0047 8.69546 24.5124 10.8065 23.9173 12.968C22.735 17.2619 21.1033 21.9118 19.86 24.0657C19.4706 24.7403 18.9581 25.3147 18.2553 25.4819C17.4979 25.6621 16.8642 25.2984 16.4298 24.8888C15.994 24.4779 15.6183 23.8995 15.2947 23.285C14.965 22.6588 14.6601 21.9377 14.3842 21.1955C13.8322 19.7107 13.3745 18.0822 13.0563 16.8348C12.8966 16.2089 12.771 15.6743 12.6851 15.2956C12.6812 15.2788 12.6775 15.2622 12.6738 15.246ZM4.14173 10.045C4.14237 10.0451 4.14331 10.0491 4.14263 10.0567C4.14075 10.0487 4.14109 10.0448 4.14173 10.045Z" fill="white"/>
<path fill-rule="evenodd" clip-rule="evenodd" d="M25.1024 2.81781C25.4441 3.15951 25.4441 3.71353 25.1024 4.05524L14.0279 15.1297C13.6862 15.4714 13.1322 15.4714 12.7905 15.1297C12.4488 14.788 12.4488 14.234 12.7905 13.8923L23.8649 2.81781C24.2066 2.4761 24.7607 2.4761 25.1024 2.81781Z" fill="white"/>
</svg>
