<svg width="20" height="20" viewBox="0 0 20 20" fill="none" xmlns="http://www.w3.org/2000/svg">
<path fill-rule="evenodd" clip-rule="evenodd" d="M7.41659 1.66666H12.5583C14.8166 1.66666 16.6416 2.55832 16.6666 4.82499V17.475C16.6666 17.6167 16.6333 17.7583 16.5666 17.8833C16.4583 18.0833 16.2749 18.2333 16.0499 18.3C15.8333 18.3667 15.5916 18.3333 15.3916 18.2167L9.99158 15.5167L4.58325 18.2167C4.45909 18.2825 4.31659 18.325 4.17492 18.325C3.70825 18.325 3.33325 17.9417 3.33325 17.475V4.82499C3.33325 2.55832 5.16659 1.66666 7.41659 1.66666ZM6.84992 8.01666H13.1249C13.4833 8.01666 13.7749 7.72416 13.7749 7.35832C13.7749 6.99166 13.4833 6.69999 13.1249 6.69999H6.84992C6.49159 6.69999 6.19992 6.99166 6.19992 7.35832C6.19992 7.72416 6.49159 8.01666 6.84992 8.01666Z" fill="white"/>
</svg>
