<svg width="28" height="28" viewBox="0 0 28 28" fill="none" xmlns="http://www.w3.org/2000/svg">
<path fill-rule="evenodd" clip-rule="evenodd" d="M22.8764 21.8724H15.4366C14.9536 21.8724 14.5616 22.2644 14.5616 22.7474C14.5616 23.2304 14.9536 23.6224 15.4366 23.6224H22.8764C23.3594 23.6224 23.7514 23.2304 23.7514 22.7474C23.7514 22.2644 23.3594 21.8724 22.8764 21.8724Z" fill="white"/>
<path fill-rule="evenodd" clip-rule="evenodd" d="M10.9276 9.02921C11.0436 8.87491 11.2626 8.84368 11.4172 8.95943L17.4605 13.4866C17.6153 13.6025 17.6467 13.8221 17.5305 13.9768L11.9075 21.4666C10.5542 23.275 8.51254 23.6366 7.10087 23.6366C6.22587 23.6366 5.59587 23.4966 5.52587 23.485C5.3742 23.45 5.2342 23.345 5.15254 23.205C5.07087 23.0533 3.0642 19.4833 5.3042 16.5083L10.9276 9.02921Z" fill="white"/>
<path fill-rule="evenodd" clip-rule="evenodd" d="M19.7825 10.9783L19.0009 12.0175C18.8848 12.1717 18.6658 12.2029 18.5113 12.0872L12.467 7.55932C12.3126 7.44361 12.2809 7.22471 12.3963 7.06999L13.1792 6.01995C13.9842 4.93495 15.2325 4.36328 16.4925 4.36328C17.3559 4.36328 18.2192 4.63161 18.9659 5.19161C19.8409 5.85661 20.4125 6.82495 20.5759 7.90995C20.7275 9.00661 20.4475 10.0916 19.7825 10.9783Z" fill="white"/>
</svg>
