<svg width="20" height="20" viewBox="0 0 20 20" fill="none" xmlns="http://www.w3.org/2000/svg">
<path fill-rule="evenodd" clip-rule="evenodd" d="M16.3404 15.6227H11.0262C10.6812 15.6227 10.4012 15.9027 10.4012 16.2477C10.4012 16.5927 10.6812 16.8727 11.0262 16.8727H16.3404C16.6854 16.8727 16.9654 16.5927 16.9654 16.2477C16.9654 15.9027 16.6854 15.6227 16.3404 15.6227Z" fill="white"/>
<path fill-rule="evenodd" clip-rule="evenodd" d="M7.80551 6.44902C7.88839 6.3388 8.04485 6.3165 8.15522 6.39917L12.4719 9.63284C12.5824 9.71568 12.6049 9.87252 12.5219 9.98302L8.50549 15.3329C7.53882 16.6246 6.08049 16.8829 5.07216 16.8829C4.44716 16.8829 3.99716 16.7829 3.94716 16.7746C3.83882 16.7496 3.73882 16.6746 3.68049 16.5746C3.62216 16.4662 2.18882 13.9162 3.78882 11.7912L7.80551 6.44902Z" fill="white"/>
<path fill-rule="evenodd" clip-rule="evenodd" d="M14.1305 7.84121L13.5721 8.58349C13.4893 8.69367 13.3328 8.71595 13.2225 8.63329L8.90513 5.39909C8.7948 5.31645 8.77219 5.16009 8.85459 5.04957L9.41383 4.29954C9.98883 3.52454 10.8805 3.11621 11.7805 3.11621C12.3972 3.11621 13.0138 3.30788 13.5472 3.70788C14.1722 4.18288 14.5805 4.87454 14.6972 5.64954C14.8055 6.43288 14.6055 7.20788 14.1305 7.84121Z" fill="white"/>
</svg>
