<svg width="28" height="28" viewBox="0 0 28 28" fill="none" xmlns="http://www.w3.org/2000/svg">
<mask id="mask0_6_9" style="mask-type:luminance" maskUnits="userSpaceOnUse" x="2" y="2" width="23" height="25">
<path fill-rule="evenodd" clip-rule="evenodd" d="M2.33333 2.3339H24.8324V26.5084H2.33333V2.3339Z" fill="white"/>
</mask>
<g mask="url(#mask0_6_9)">
<path fill-rule="evenodd" clip-rule="evenodd" d="M8.4027 20.3472C8.66987 20.3472 8.93704 20.3811 9.19837 20.4511C9.98704 20.6634 10.6719 21.1907 11.0779 21.8989C11.3415 22.3434 11.4874 22.8626 11.492 23.3922C11.492 24.1506 12.101 24.7584 12.85 24.7584H14.3118C15.0573 24.7584 15.6663 24.1541 15.6698 23.4086C15.6652 22.5849 15.9872 21.8021 16.5763 21.2129C17.1573 20.6319 17.9693 20.2831 18.7813 20.3064C19.3133 20.3192 19.8255 20.4627 20.277 20.7194C20.9268 21.0916 21.7563 20.8699 22.132 20.2282L22.9067 18.9367C23.0793 18.6392 23.1295 18.2659 23.0373 17.9217C22.9463 17.5776 22.7177 17.2789 22.4097 17.1027C21.6887 16.6874 21.1742 16.0177 20.9607 15.2151C20.7495 14.4276 20.865 13.5677 21.2768 12.8596C21.5452 12.3929 21.9383 11.9997 22.4097 11.7291C23.042 11.3592 23.2637 10.5321 22.8962 9.88807C22.881 9.8624 22.867 9.83557 22.8553 9.80757L22.1717 8.62224C21.7995 7.97474 20.9712 7.7519 20.3213 8.12174C19.619 8.53707 18.7837 8.65607 17.981 8.4449C17.1795 8.23724 16.5075 7.72974 16.0887 7.0134C15.8203 6.5654 15.6745 6.0439 15.6698 5.51307C15.6803 5.11407 15.5403 4.7559 15.286 4.4934C15.0328 4.23207 14.677 4.0839 14.3118 4.0839H12.85C12.4883 4.0839 12.15 4.22507 11.8945 4.4794C11.6402 4.7349 11.5014 5.0744 11.5037 5.43607C11.4792 7.14174 10.085 8.5149 8.39687 8.5149C7.85554 8.50907 7.33404 8.36324 6.88137 8.09257C6.24554 7.7309 5.41487 7.95374 5.04271 8.60124L4.25287 9.89974C3.8912 10.5274 4.11287 11.3569 4.75687 11.7314C5.71237 12.2844 6.30854 13.3157 6.30854 14.4217C6.30854 15.5277 5.71237 16.5579 4.75454 17.1121C4.11404 17.4831 3.89237 18.3079 4.26337 18.9496L4.99954 20.2189C5.18154 20.5467 5.47904 20.7836 5.82321 20.8804C6.16621 20.9761 6.54421 20.9352 6.85921 20.7602C7.32237 20.4884 7.86137 20.3472 8.4027 20.3472ZM14.3118 26.5084H12.85C11.1362 26.5084 9.74204 25.1154 9.74204 23.4016C9.7397 23.1904 9.67904 22.9711 9.56587 22.7809C9.3827 22.4612 9.08637 22.2326 8.74454 22.1416C8.40504 22.0506 8.03287 22.1007 7.7272 22.2781C6.99454 22.6864 6.13237 22.7856 5.3437 22.5639C4.5562 22.3411 3.87604 21.7997 3.47704 21.0822L2.74787 19.8257C1.89504 18.3464 2.40254 16.4506 3.87954 15.5966C4.29837 15.3551 4.55854 14.9047 4.55854 14.4217C4.55854 13.9387 4.29837 13.4872 3.87954 13.2457C2.40137 12.3871 1.89504 10.4866 2.74671 9.00724L3.53771 7.70874C4.37887 6.24574 6.28054 5.73007 7.76337 6.58174C7.9652 6.7019 8.18454 6.76257 8.40737 6.7649C9.1342 6.7649 9.74204 6.16524 9.7537 5.4279C9.74904 4.61474 10.0699 3.83424 10.6544 3.24507C11.2412 2.65707 12.0205 2.3339 12.85 2.3339H14.3118C15.1472 2.3339 15.9592 2.6769 16.5413 3.27307C17.1223 3.87274 17.4432 4.69524 17.4187 5.5294C17.421 5.71724 17.4828 5.93424 17.5948 6.1244C17.7803 6.4394 18.0732 6.66107 18.4208 6.75207C18.7685 6.8384 19.1325 6.79174 19.4417 6.60857C20.935 5.75574 22.8355 6.26674 23.6883 7.7484L24.4152 9.00724C24.4338 9.04107 24.4502 9.07374 24.4642 9.10757C25.2365 10.5671 24.7208 12.4046 23.2858 13.2434C23.077 13.3636 22.9078 13.5316 22.7912 13.7346C22.6103 14.0484 22.5602 14.4217 22.6512 14.7647C22.7445 15.1147 22.9673 15.4052 23.2812 15.5849C23.9893 15.9921 24.5178 16.6781 24.729 17.4702C24.9402 18.2612 24.8247 19.1199 24.4128 19.8281L23.6382 21.1184C22.7853 22.5837 20.8848 23.0912 19.4067 22.2372C19.2095 22.1241 18.982 22.0622 18.7557 22.0564H18.7487C18.4115 22.0564 18.065 22.1999 17.813 22.4507C17.5575 22.7062 17.4175 23.0469 17.4198 23.4086C17.4117 25.1224 16.0175 26.5084 14.3118 26.5084Z" fill="white"/>
</g>
<path fill-rule="evenodd" clip-rule="evenodd" d="M13.5858 12.2204C12.3725 12.2204 11.3855 13.2085 11.3855 14.4219C11.3855 15.6352 12.3725 16.621 13.5858 16.621C14.7992 16.621 15.7862 15.6352 15.7862 14.4219C15.7862 13.2085 14.7992 12.2204 13.5858 12.2204ZM13.5858 18.371C11.4077 18.371 9.63554 16.6 9.63554 14.4219C9.63554 12.2437 11.4077 10.4704 13.5858 10.4704C15.764 10.4704 17.5362 12.2437 17.5362 14.4219C17.5362 16.6 15.764 18.371 13.5858 18.371Z" fill="white"/>
</svg>
