<svg width="24" height="24" viewBox="0 0 24 24" fill="none" xmlns="http://www.w3.org/2000/svg">
<path d="M21.9002 16.7793C22.6273 15.2873 23.0035 13.6488 23 11.989C22.9967 9.56661 22.1952 7.21278 20.7195 5.29171C19.2438 3.37064 17.1762 1.98941 14.8365 1.36172H14.7836C13.068 0.910037 11.2685 0.880927 9.53922 1.27688C7.80992 1.67283 6.20235 2.48205 4.85422 3.63522L4.71675 3.76212C3.04279 5.23949 1.85865 7.1918 1.32205 9.35902C0.785444 11.5262 0.921842 13.8055 1.71308 15.8933C2.50431 17.981 3.91283 19.7782 5.75103 21.0454C7.58924 22.3126 9.76989 22.9897 12.0025 22.9865H12.2563C14.2532 22.9371 16.1992 22.3464 17.8865 21.2774C19.5739 20.2084 20.9392 18.7012 21.8368 16.9167L21.9002 16.7793ZM21.3081 11.989C21.3061 13.0969 21.1093 14.1958 20.7265 15.2354L15.8199 12.2217C15.6184 12.0927 15.391 12.0096 15.1537 11.9785L12.7428 11.6612C12.4331 11.6212 12.1183 11.6671 11.833 11.7939C11.5476 11.9207 11.3027 12.1236 11.1249 12.3803H10.2155L9.81364 11.5449C9.70107 11.3142 9.53809 11.1118 9.33676 10.9525C9.13542 10.7933 8.90087 10.6813 8.65045 10.6249L7.95253 10.4769L8.22747 9.853C8.28913 9.69904 8.39577 9.56724 8.53348 9.4748C8.67118 9.38237 8.83356 9.3336 8.9994 9.33485H10.7019C10.9867 9.33358 11.2667 9.26086 11.5161 9.12336L12.8062 8.4043C12.9201 8.34259 13.0265 8.26808 13.1234 8.18224L15.968 5.60207C16.2156 5.38497 16.393 5.09914 16.4778 4.78092C16.5625 4.4627 16.5507 4.12648 16.4438 3.81499C17.9149 4.61396 19.1432 5.79497 19.9993 7.23355C20.8553 8.67213 21.3075 10.315 21.3081 11.989ZM2.69703 11.989C2.69462 10.5299 3.03893 9.091 3.7016 7.79098L4.80135 10.7413C4.90192 11.0055 5.06672 11.2406 5.28088 11.4252C5.49503 11.6098 5.75179 11.7382 6.02798 11.7987L6.60958 11.9256H6.62015L7.88909 12.2005C8.01469 12.2259 8.13264 12.2803 8.2336 12.3592C8.33455 12.4381 8.41572 12.5395 8.47068 12.6552L8.69274 13.1205C8.83266 13.4053 9.04938 13.6453 9.31843 13.8134C9.58749 13.9816 9.89818 14.0712 10.2155 14.0722H10.3424L9.52813 15.891C9.39328 16.1933 9.34947 16.5283 9.40205 16.8551C9.45464 17.1819 9.60134 17.4863 9.82421 17.731L11.5267 19.5709C11.6144 19.6689 11.6789 19.7854 11.7155 19.9117C11.7521 20.038 11.7598 20.1709 11.7382 20.3006L11.5478 21.284C9.16224 21.1647 6.91359 20.1336 5.26644 18.4038C3.61928 16.674 2.69947 14.3776 2.69703 11.989Z" fill="#F5484A"/>
</svg>
