<svg width="60" height="60" viewBox="0 0 60 60" fill="none" xmlns="http://www.w3.org/2000/svg">
<path fill-rule="evenodd" clip-rule="evenodd" d="M48.316 47.2449V18.9164C48.316 17.8655 47.9465 17.2525 47.3527 16.946L22.7243 4.47991C19.3554 2.7311 12.6995 6.10556 10.792 9.07223C9.99051 10.3181 9.99677 11.236 10.0006 11.7921C10.0008 11.8285 10.001 11.8633 10.001 11.8966L10.3076 40.0471C10.324 40.6465 11.093 41.4539 11.7498 41.8479C12.7251 42.4362 23.5534 49.0731 29.8795 52.9505C32.4121 54.5028 34.223 55.6127 34.3913 55.7152C34.7104 55.9058 35.076 56.0043 35.4477 55.9999C35.7637 56.0011 36.0756 55.929 36.359 55.7891C36.657 55.6393 36.9086 55.4111 37.0865 55.129C37.2645 54.8469 37.3621 54.5216 37.3689 54.1881V24.6254C37.3689 24.0069 37.0021 23.5252 36.4083 23.2132L14.0214 10.9469C14.2759 10.4653 15.2721 9.4417 17.103 8.50024C18.8119 7.62152 20.1419 8.23914 20.6518 8.47594C20.7168 8.50612 20.7684 8.53011 20.8059 8.54403C20.8059 8.54403 41.3263 19.3324 41.9831 19.6691C42.6399 20.0057 42.8424 20.5558 42.8424 21.1332V48.8131C42.8424 50.2143 44.375 51.2762 45.5792 50.4196C45.7456 50.3014 45.9088 50.188 46.0674 50.0778C47.3383 49.1945 48.316 48.515 48.316 47.2449ZM22.0802 31.0839L19.5359 32.5029L15.9115 26.015C14.8477 24.0971 14.6495 22.0828 15.3011 20.9264C15.5762 20.4476 16.3105 20.7498 16.7257 21.4942L22.0802 31.0839ZM30.2184 35.5526C28.7889 36.3498 26.8841 35.7347 25.5467 34.2033L24.2252 34.9404L29.5708 44.5249C29.6509 44.6685 29.7138 44.8198 29.7559 44.9702C29.798 45.1207 29.8186 45.2672 29.8164 45.4016C29.8141 45.5359 29.7892 45.6554 29.7429 45.7533C29.6967 45.8511 29.63 45.9254 29.5468 45.9718C29.4636 46.0182 29.3654 46.0359 29.2578 46.0238C29.1503 46.0118 29.0355 45.9702 28.92 45.9015C28.8045 45.8328 28.6906 45.7383 28.5848 45.6234C28.4789 45.5085 28.3833 45.3755 28.3032 45.2319L22.9575 35.6474L17.393 38.7306C17.2249 38.8244 16.9994 38.7991 16.7662 38.6604C16.5329 38.5216 16.3111 38.2808 16.1493 37.9908C15.9876 37.7008 15.8993 37.3854 15.9038 37.1141C15.9083 36.8428 16.0052 36.6376 16.1733 36.5439L24.3184 32.0011C23.7182 30.0585 24.1958 28.1146 25.6253 27.3174C27.3512 26.3649 29.774 27.4333 31.0369 29.6976C32.3085 31.9774 31.9355 34.5949 30.2184 35.5526Z" fill="url(#paint0_linear_1127_18207)"/>
<path d="M50.467 4.85548L50.4456 4.63029C50.4031 4.18481 49.9573 3.8946 49.5328 4.03611L49.3188 4.10743C47.53 4.72896 45.6197 4.91969 43.7432 4.66412C41.7715 4.35812 39.7533 4.63004 37.9328 5.44697C36.9677 5.85791 36.1207 6.50373 35.469 7.32563C34.8172 8.14752 34.3814 9.11939 34.2012 10.1527C34.0682 10.9128 34.0488 11.6852 34.1409 12.445C34.2166 13.0689 35.0183 13.1303 35.3401 12.5905C35.4139 12.4669 35.4894 12.3444 35.5668 12.2229C36.4508 10.9224 37.6756 9.8902 39.1071 9.23942C39.1575 9.21638 39.2082 9.19378 39.259 9.17163C39.7203 8.97046 39.8796 9.62157 39.455 9.89179C38.8613 10.2648 38.3176 10.712 37.8371 11.2226C37.3775 11.733 36.9723 12.2898 36.628 12.884C35.9813 14.1261 35.5212 15.4568 35.2624 16.833C35.0301 17.9827 34.8863 19.1482 34.832 20.3192C34.814 20.7073 35.1283 21.0256 35.5169 21.0256H35.8975C36.2643 21.0256 36.5672 20.7407 36.5998 20.3753C36.6654 19.6409 36.7614 18.9097 36.8875 18.1834C36.9671 17.725 37.4748 17.4902 37.907 17.6624C38.8859 18.0526 39.9349 18.2478 40.9946 18.2334C42.2736 18.2326 43.5395 17.9752 44.7174 17.4767C51.3368 14.6498 50.467 5.2469 50.467 4.85548Z" fill="#4AAF57"/>
<defs>
<linearGradient id="paint0_linear_1127_18207" x1="48.3161" y1="56" x2="1.04806" y2="45.9015" gradientUnits="userSpaceOnUse">
<stop stop-color="#F5484A"/>
<stop offset="1" stop-color="#FF7475"/>
</linearGradient>
</defs>
</svg>
