<svg width="24" height="24" viewBox="0 0 24 24" fill="none" xmlns="http://www.w3.org/2000/svg">
<path d="M18.5402 8.99978L8.88021 3.45978C8.3575 3.15794 7.76421 2.99982 7.16061 3.00148C6.557 3.00314 5.96459 3.16451 5.44354 3.46922C4.92249 3.77393 4.49137 4.21111 4.19396 4.73636C3.89655 5.26161 3.74345 5.85621 3.75021 6.45978V17.5798C3.75021 18.4868 4.11053 19.3567 4.75191 19.9981C5.39328 20.6395 6.26317 20.9998 7.17021 20.9998C7.77065 20.9988 8.3603 20.8401 8.88021 20.5398L18.5402 14.9998C19.0593 14.6994 19.4902 14.2678 19.7898 13.7482C20.0894 13.2287 20.2471 12.6395 20.2471 12.0398C20.2471 11.4401 20.0894 10.8509 19.7898 10.3313C19.4902 9.81181 19.0593 9.38019 18.5402 9.07978V8.99978ZM17.5402 13.1898L7.88021 18.8098C7.6637 18.9325 7.41908 18.997 7.17021 18.997C6.92135 18.997 6.67673 18.9325 6.46021 18.8098C6.24431 18.6851 6.06503 18.5058 5.9404 18.2899C5.81576 18.074 5.75017 17.8291 5.75021 17.5798V6.41978C5.75017 6.17048 5.81576 5.92556 5.9404 5.70964C6.06503 5.49373 6.24431 5.31443 6.46021 5.18978C6.67762 5.06894 6.92151 5.00367 7.17021 4.99978C7.41875 5.00488 7.66235 5.07007 7.88021 5.18978L17.5402 10.7698C17.7562 10.8944 17.9356 11.0737 18.0603 11.2896C18.185 11.5055 18.2506 11.7504 18.2506 11.9998C18.2506 12.2491 18.185 12.4941 18.0603 12.71C17.9356 12.9259 17.7562 13.1052 17.5402 13.2298V13.1898Z" fill="#212121"/>
</svg>
