<svg width="350" height="258" viewBox="0 0 350 258" fill="none" xmlns="http://www.w3.org/2000/svg">
<g clip-path="url(#clip0_2280_14978)">
<path opacity="0.1" d="M3.76758 123.695C9.2943 145.04 20.9841 163.491 39.4574 172.436C77.8612 191.024 164.472 181.437 229.113 170.433C262.55 164.741 291.94 149.033 313.289 126.929L3.76758 123.695Z" fill="url(#paint0_linear_2280_14978)"/>
<path opacity="0.1" d="M342.739 23.2211H307.272C305.589 23.2211 304.208 21.9747 304.208 20.4516C304.208 18.9286 305.589 17.679 307.272 17.679H313.406C311.72 17.679 310.342 16.4325 310.342 14.9063C310.342 13.3801 311.72 12.1368 313.406 12.1368H309.028C307.342 12.1368 305.961 10.8904 305.961 9.36417C305.961 7.83794 307.342 6.59469 309.028 6.59469H327.54C323.432 4.86814 318.631 3.6408 313.098 2.99533C262.619 -2.86476 244.598 1.01123 238.24 4.99533C230.317 10.0231 221.515 13.5118 212.296 15.2783C181.153 21.0875 122.911 28.0764 70.1227 13.0526C43.8859 5.57085 24.3848 18.1972 12.6982 39.3038H348.899C348.46 33.1702 347.146 27.5041 344.734 22.547C344.163 22.9877 343.461 23.225 342.739 23.2211Z" fill="url(#paint1_linear_2280_14978)"/>
<path opacity="0.1" d="M0.76035 79.1416C-0.601935 91.5555 -0.138854 104.102 2.13487 116.382L313.527 126.681C322.099 117.796 329.382 107.755 335.163 96.8491L0.76035 79.1416ZM123.92 105.708H117.789C119.475 105.708 120.856 106.957 120.856 108.48C120.856 110.003 119.475 111.25 117.789 111.25H82.3216C80.6384 111.25 79.2576 110.003 79.2576 108.48C79.2576 106.957 80.6384 105.708 82.3216 105.708H88.456C86.7697 105.708 85.392 104.461 85.392 102.938C85.392 101.415 86.7697 100.165 88.456 100.165H84.0747C82.3884 100.165 81.0075 98.919 81.0075 97.396C81.0075 95.8729 82.3884 94.6233 84.0747 94.6233H119.542C121.228 94.6233 122.606 95.8697 122.606 97.396C122.606 98.9222 121.228 100.165 119.542 100.165H123.92C125.606 100.165 126.984 101.412 126.984 102.938C126.984 104.464 125.606 105.708 123.92 105.708Z" fill="url(#paint2_linear_2280_14978)"/>
<path opacity="0.1" d="M348.912 39.4946L8.94681 46.9668C4.81052 56.5789 2.06785 67.4469 0.804688 78.7093H342.955C345.182 72.1201 346.834 65.3509 347.893 58.4771C348.915 51.8603 349.322 45.4597 348.912 39.4946ZM69.8298 63.9938H63.6985C65.3849 63.9938 66.7658 65.2434 66.7658 66.7665C66.7658 68.2895 65.3849 69.5391 63.6985 69.5391H28.2315C26.5483 69.5391 25.1674 68.2895 25.1674 66.7665C25.1674 65.2434 26.5483 63.9938 28.2315 63.9938H34.3659C32.6796 63.9938 31.3019 62.7474 31.3019 61.2244C31.3019 59.7013 32.6796 58.4517 34.3659 58.4517H29.9846C28.2983 58.4517 26.9174 57.2053 26.9174 55.6822C26.9174 54.1592 28.2983 52.9096 29.9846 52.9096H65.4517C67.138 52.9096 68.5157 54.156 68.5157 55.6822C68.5157 57.2085 67.138 58.4517 65.4517 58.4517H69.8298C71.5161 58.4517 72.8938 59.7013 72.8938 61.2244C72.8938 62.7474 71.5161 63.9938 69.8298 63.9938Z" fill="url(#paint3_linear_2280_14978)"/>
<path opacity="0.1" d="M173.431 248.356C251.976 248.356 315.65 242.502 315.65 235.281C315.65 228.06 251.976 222.207 173.431 222.207C94.8862 222.207 31.2129 228.06 31.2129 235.281C31.2129 242.502 94.8862 248.356 173.431 248.356Z" fill="url(#paint4_linear_2280_14978)"/>
<path d="M318.38 127.288C318.378 127.266 318.378 127.243 318.38 127.221C318.38 127.186 318.38 127.154 318.38 127.123C318.316 126.758 318.178 126.411 317.976 126.102C317.248 124.937 316.233 123.978 315.029 123.316C312.929 122.165 310.043 121.673 309.203 119.475C308.946 118.795 308.939 118.054 308.812 117.342C308.589 116.232 308.079 115.201 307.331 114.351C306.583 113.501 305.625 112.862 304.552 112.499C303.553 112.165 302.474 112.073 301.504 111.66C299.334 110.738 298.188 108.464 297.218 106.363C295.962 103.649 294.706 100.935 293.451 98.2195C292.496 98.6996 291.262 98.4739 290.367 97.8729C289.506 97.2319 288.82 96.3845 288.373 95.4087C287.078 92.8968 286.521 90.051 285 87.6599C283.479 85.2688 280.44 83.3801 277.755 84.4198C277.231 84.6816 276.688 84.9058 276.132 85.0907C273.832 85.6281 271.286 83.0017 269.317 84.2767C268.99 84.4864 268.723 84.778 268.544 85.1225C268.542 85.1013 268.542 85.0801 268.544 85.0589C268.288 85.5761 268.144 86.1419 268.124 86.7187C268.124 86.8363 268.124 86.9508 268.124 87.0621C268.124 87.0812 268.124 87.1002 268.124 87.1193C268.124 87.5772 268.152 88.0414 268.159 88.5057C268.166 88.8955 268.136 89.2852 268.07 89.6694V89.6376C268.032 89.8538 267.977 90.0666 267.904 90.2735C267.392 91.6472 265.973 92.547 265.308 93.8379V93.7743C265.233 93.9148 265.168 94.0603 265.114 94.2099C264.996 94.5483 264.934 94.904 264.932 95.2624C264.875 97.6885 267.449 99.9715 267.748 102.576C267.962 104.42 268.385 105.011 269.953 106.054L270.297 106.283C270.16 106.283 270.02 106.302 269.864 106.305C269.803 106.306 269.743 106.313 269.683 106.324C269.406 106.248 269.116 106.234 268.833 106.284C268.55 106.333 268.282 106.445 268.047 106.611C266.845 107.564 264 106.83 262.737 106.611C261.474 106.391 257.147 106.983 256.542 109.38C255.938 111.778 254.9 116.725 254.9 116.725C254.9 116.725 254.9 119.863 254.515 120.448C254.501 120.49 254.501 120.535 254.515 120.576C254.515 121.456 254.547 126.75 253.695 128.115C253.485 128.433 253.5 129.135 253.656 130C252.759 131.154 251.916 132.502 252.065 133.386C252.339 135.196 256.011 140.884 261.273 137.838C261.273 137.838 264.267 132.366 260.5 129.456L260.663 128.82C261.802 130.219 262.645 131.224 262.645 131.224C262.645 131.224 262.689 131.342 262.759 131.542H262.645C263.136 132.879 263.434 134.28 263.529 135.701C263.515 136.222 263.421 136.738 263.249 137.231H263.348C263.319 137.339 263.288 137.447 263.249 137.549C263.064 138.086 262.719 138.553 262.26 138.887C259.628 140.75 256.615 154.057 256.615 154.057C256.615 154.057 250.646 175.568 249.453 176.792C248.467 177.797 254.665 180.626 259.317 180.289C259.966 180.251 260.608 180.129 261.226 179.927C261.254 180.245 261.286 180.563 261.318 180.852C261.417 181.806 261.518 182.69 261.582 182.967C261.748 183.66 262.075 190.738 262.075 190.738C262.075 190.738 261.404 195.336 261.566 198.534C261.566 198.754 261.595 198.964 261.614 199.17L261.035 199.259C260.157 201.231 263.774 217.679 264.267 219.062C264.594 220.152 264.778 221.279 264.815 222.417C264.815 222.417 264.497 223.587 264.761 224.226C264.925 224.616 265.032 225.029 265.079 225.45C265.079 225.45 264.862 226.512 265.19 227.205C265.518 227.898 265.136 229.113 265.136 229.113C265.136 229.113 265.028 233.905 264.042 236.512C263.773 237.214 263.695 237.974 263.815 238.715C263.935 239.457 264.249 240.153 264.726 240.735C264.794 240.825 264.869 240.911 264.948 240.992C264.948 240.992 270.389 241.037 271.347 240.992H271.471C271.856 240.938 272.842 236.626 271.964 234.55C271.086 232.474 271.856 229.917 271.856 229.917V226.14C271.856 226.14 272.842 225.231 271.856 223.278C270.87 221.326 271.032 220.735 271.032 220.735C271.032 220.735 272.13 217.593 270.978 216.582C269.826 215.571 271.197 211.736 271.197 211.736L271.586 198.954C271.382 198.888 271.175 198.835 270.965 198.795C270.943 198.585 270.921 198.369 270.898 198.14C270.672 195.825 270.478 192.677 270.981 191.781C271.484 190.884 271.726 183.056 271.805 177.615L276.82 177.806C276.925 180.35 277.036 182.671 277.106 182.967C277.271 183.66 277.602 190.738 277.602 190.738C277.602 190.738 276.928 195.336 277.09 198.534C277.09 198.754 277.119 198.964 277.138 199.17L276.559 199.259C275.68 201.231 279.298 217.679 279.791 219.062C280.118 220.152 280.303 221.279 280.342 222.417C280.342 222.417 280.024 223.587 280.284 224.226C280.449 224.616 280.556 225.029 280.603 225.45C280.603 225.45 280.386 226.512 280.714 227.205C281.042 227.898 280.66 229.113 280.66 229.113C280.66 229.113 280.552 233.905 279.565 236.512C279.301 237.215 279.227 237.975 279.351 238.715C279.475 239.455 279.793 240.15 280.272 240.728C280.34 240.819 280.415 240.905 280.494 240.986C280.494 240.986 285.935 241.03 286.893 240.986H287.017C287.402 240.932 288.388 236.62 287.51 234.544C286.632 232.467 287.402 229.911 287.402 229.911V226.14C287.402 226.14 288.388 225.231 287.402 223.278C286.416 221.326 286.578 220.735 286.578 220.735C286.578 220.735 287.676 217.593 286.524 216.582C285.372 215.571 286.743 211.736 286.743 211.736L287.138 198.954C286.93 198.887 286.717 198.834 286.502 198.795C286.479 198.585 286.457 198.369 286.435 198.14C286.209 195.825 286.015 192.677 286.518 191.781C286.922 191.046 287.154 186.315 287.259 181.695C287.259 181.377 287.259 181.059 287.284 180.741C289.588 180.645 291.883 180.388 294.151 179.971C294.151 179.971 291.468 170.493 292.289 168.951C292.642 168.286 292.133 164.747 291.437 160.935C292.408 161.721 293.616 162.158 294.866 162.175C296.066 164.48 299.715 169.784 301.771 170.601C304.183 171.555 302.372 163.097 301.224 161.873C300.68 161.205 300.223 160.471 299.862 159.688C299.894 159.65 299.929 159.619 299.96 159.584C299.992 159.549 300.018 150.585 299.467 150.747C298.917 150.909 298.261 149.415 298.261 149.415L296.562 134.512L295.85 128.274C296.445 128.712 297.151 128.992 297.759 129.428C299.413 130.639 299.954 132.766 300.68 134.649C301.278 136.197 302.118 137.733 303.495 138.706C304.873 139.679 306.894 139.936 308.268 138.951C309.541 138.026 309.916 136.356 310.196 134.833C312.506 135.644 315.309 133.475 315.01 131.107C314.937 130.522 314.721 129.882 315.026 129.371C315.637 128.359 317.572 128.948 318.208 127.949C318.315 127.777 318.37 127.577 318.367 127.374C318.376 127.329 318.38 127.31 318.38 127.288ZM287.482 135.485C287.447 136.054 288.229 140.626 288.866 144.245C288.344 141.991 287.297 139.584 285.235 137.933C285.235 137.933 285.235 137.819 285.21 137.615H285.235C285.235 137.615 285.149 136.706 285.137 135.412C285.14 134.265 285.225 133.119 285.391 131.984V131.956H285.35C285.35 131.86 285.375 131.762 285.391 131.666C285.518 130.708 285.778 129.773 286.164 128.887C286.335 128.54 286.532 128.206 286.753 127.889C287.093 130.964 287.513 134.909 287.482 135.485ZM289.193 146.08C289.473 147.641 289.674 148.738 289.674 148.738L291.363 160.331V160.385C290.453 155.491 289.292 150.334 289.292 150.334C289.41 148.916 289.377 147.49 289.193 146.08Z" fill="url(#paint5_linear_2280_14978)"/>
<path d="M268.486 103.212C268.168 100.274 264.986 97.7394 265.941 94.9445C266.459 93.4215 268.082 92.4898 268.629 90.9763C268.992 89.9779 268.83 88.8809 268.833 87.8189C268.836 86.7569 269.084 85.5709 269.969 84.9827C271.878 83.7108 274.334 86.3277 276.561 85.7935C277.1 85.6094 277.624 85.3863 278.13 85.1258C280.729 84.0924 283.669 85.9747 285.13 88.3531C286.59 90.7315 287.138 93.5677 288.391 96.0669C288.819 97.032 289.482 97.8748 290.319 98.5184C291.185 99.1162 292.368 99.342 293.304 98.865L296.947 106.973C297.901 109.062 298.996 111.326 301.083 112.245C302.019 112.655 303.062 112.747 304.029 113.081C305.081 113.452 306.016 114.092 306.742 114.937C307.468 115.783 307.959 116.804 308.166 117.898C308.29 118.611 308.293 119.348 308.544 120.026C309.356 122.213 312.146 122.703 314.179 123.841C315.355 124.504 316.342 125.458 317.043 126.611C317.361 127.161 317.635 127.883 317.294 128.423C316.68 129.415 314.812 128.83 314.221 129.838C313.922 130.347 314.132 130.983 314.221 131.568C314.51 133.924 311.796 136.083 309.563 135.275C309.292 136.792 308.926 138.455 307.698 139.374C306.378 140.359 304.421 140.099 303.088 139.132C301.755 138.166 300.946 136.636 300.367 135.094C299.664 133.218 299.139 131.1 297.539 129.895C296.96 129.463 296.266 129.183 295.7 128.747C294.427 127.774 293.791 126.169 293.336 124.614C292.747 122.674 292.279 120.681 291.427 118.849C290.574 117.018 289.225 115.313 287.376 114.477C285.642 113.698 283.644 113.749 281.853 113.116C278.769 112.029 276.488 109.437 273.421 108.216C272.44 107.805 271.511 107.279 270.653 106.652C269.11 105.638 268.69 105.049 268.486 103.212Z" fill="#3F3D56"/>
<g opacity="0.1">
<path d="M268.772 90.3532C268.838 90.2288 268.895 90.1003 268.944 89.9684C269.304 88.97 269.145 87.873 269.148 86.811C269.148 86.4568 269.181 86.1034 269.247 85.7554C268.953 86.3836 268.81 87.0718 268.83 87.7649C268.827 88.6202 268.928 89.5169 268.772 90.3532Z" fill="black"/>
<path d="M307.997 138.375C306.677 139.358 304.72 139.1 303.387 138.131C302.054 137.161 301.242 135.638 300.679 134.089C299.976 132.213 299.454 130.096 297.851 128.89C297.275 128.458 296.578 128.175 296.015 127.743C294.742 126.77 294.106 125.164 293.648 123.625C293.059 121.685 292.594 119.692 291.739 117.86C290.883 116.029 289.54 114.324 287.688 113.488C285.957 112.709 283.959 112.76 282.168 112.127C279.081 111.04 276.8 108.448 273.736 107.227C272.755 106.814 271.825 106.289 270.965 105.663C269.457 104.623 269.056 104.035 268.833 102.2C268.515 99.4469 265.715 97.0463 266.151 94.4517C266.08 94.592 266.017 94.7364 265.963 94.8841C265.009 97.6822 268.19 100.216 268.509 103.151C268.715 104.986 269.145 105.574 270.64 106.614C271.501 107.24 272.431 107.765 273.412 108.178C276.476 109.399 278.757 111.994 281.843 113.078C283.635 113.714 285.633 113.66 287.364 114.439C289.215 115.275 290.545 116.983 291.414 118.811C292.283 120.639 292.747 122.627 293.323 124.576C293.791 126.115 294.405 127.72 295.69 128.693C296.266 129.126 296.963 129.409 297.526 129.841C299.117 131.046 299.652 133.164 300.355 135.04C300.934 136.582 301.745 138.108 303.078 139.075C304.411 140.041 306.368 140.302 307.689 139.32C308.532 138.684 308.961 137.714 309.245 136.674C308.993 137.345 308.561 137.933 307.997 138.375Z" fill="black"/>
<path d="M314.536 128.84C314.414 129.068 314.361 129.326 314.383 129.584C315.102 128.875 316.725 129.291 317.291 128.379C317.422 128.153 317.474 127.89 317.437 127.631C316.699 128.331 315.076 127.914 314.536 128.84Z" fill="black"/>
<path d="M309.862 134.277C309.802 134.595 309.741 134.935 309.665 135.266C311.612 135.873 313.862 134.312 314.18 132.34C313.407 133.857 311.498 134.871 309.862 134.277Z" fill="black"/>
</g>
<path d="M272.598 104.741C272.598 104.741 273.657 106.878 270.53 106.922C267.402 106.967 272.544 120.798 272.544 120.798L277.743 127.412L284.211 123.914L284.583 114.267L285.061 108.439C285.061 108.439 279.015 106.477 280.129 103.883C281.243 101.288 272.598 104.741 272.598 104.741Z" fill="#FBBEBE"/>
<path d="M291.373 161.135C291.373 161.135 295.191 164.89 299.646 159.908L296.225 156.28H291.898L291.373 161.135Z" fill="#575A89"/>
<path opacity="0.1" d="M291.787 156.28L291.262 161.135C291.262 161.135 295.08 164.89 299.534 159.908" fill="black"/>
<path d="M298.21 156.941C298.21 156.941 299.747 160.97 300.86 162.188C301.974 163.406 303.724 171.832 301.392 170.878C299.06 169.924 294.605 162.824 294.338 161.606C294.071 160.388 293.969 156.941 293.969 156.941H298.21Z" fill="#FBBEBE"/>
<path d="M264.856 177.609L285.43 178.404L283.043 169.711L272.68 169.501L264.856 177.609Z" fill="#575A89"/>
<path opacity="0.1" d="M267.717 177.609L288.293 178.404L285.907 169.711L275.541 169.501L267.717 177.609Z" fill="black"/>
<path d="M271.589 191.959C271.102 192.865 271.29 196 271.509 198.318C271.649 199.793 271.802 200.929 271.802 200.929C271.802 200.929 264.112 203.313 262.947 201.247C262.651 200.722 262.505 199.803 262.454 198.725C262.295 195.545 262.947 190.964 262.947 190.964C262.947 190.964 262.629 183.917 262.47 183.228C262.406 182.951 262.308 182.073 262.212 181.123C262.072 179.711 261.938 178.14 261.938 178.14L272.438 172.576C272.438 172.576 272.438 173.619 272.419 175.224C272.362 180.267 272.193 190.846 271.589 191.959Z" fill="#FBBEBE"/>
<path opacity="0.1" d="M271.802 200.928C271.802 200.928 264.112 203.313 262.947 201.246C262.651 200.722 262.505 199.803 262.454 198.725C264.045 198.483 268.888 197.815 271.509 198.318C271.649 199.793 271.802 200.928 271.802 200.928Z" fill="black"/>
<path d="M272.066 240.992H271.945C271.019 241.027 265.756 240.992 265.756 240.992C265.679 240.912 265.607 240.827 265.54 240.738C265.075 240.156 264.767 239.464 264.648 238.729C264.528 237.994 264.599 237.24 264.856 236.541C265.81 233.943 265.915 229.173 265.915 229.173C265.915 229.173 266.287 227.956 265.969 227.266C265.651 226.576 265.861 225.517 265.861 225.517C265.812 225.098 265.705 224.688 265.543 224.299C265.279 223.663 265.597 222.496 265.597 222.496C265.561 221.365 265.382 220.244 265.066 219.158C264.588 217.781 261.088 201.406 261.938 199.444C261.938 199.444 269.361 198.172 272.174 199.126L271.801 211.844C271.801 211.844 270.475 215.66 271.588 216.668C272.702 217.676 271.642 220.801 271.642 220.801C271.642 220.801 271.483 221.383 272.438 223.345C273.392 225.307 272.438 226.207 272.438 226.207V229.968C272.438 229.968 271.696 232.512 272.543 234.579C273.389 236.646 272.438 240.925 272.066 240.992Z" fill="#3F3D56"/>
<path d="M286.636 191.959C286.149 192.865 286.337 196 286.556 198.318C286.696 199.794 286.849 200.929 286.849 200.929C286.849 200.929 279.158 203.313 277.994 201.247C277.698 200.722 277.552 199.803 277.501 198.725C277.342 195.546 277.994 190.964 277.994 190.964C277.994 190.964 277.676 183.918 277.517 183.228C277.431 182.856 277.281 179.307 277.164 176.124C277.065 173.409 276.985 170.954 276.985 170.954L287.485 172.576C287.485 172.576 287.485 177.189 287.355 181.93C287.24 186.528 287.027 191.24 286.636 191.959Z" fill="#FBBEBE"/>
<path opacity="0.1" d="M286.848 200.928C286.848 200.928 279.158 203.313 277.993 201.246C277.697 200.722 277.551 199.803 277.5 198.725C279.091 198.483 283.934 197.815 286.555 198.318C286.695 199.793 286.848 200.928 286.848 200.928Z" fill="black"/>
<path d="M287.112 240.992H286.991C286.065 241.027 280.803 240.992 280.803 240.992C280.726 240.912 280.654 240.827 280.586 240.738C280.121 240.156 279.814 239.464 279.694 238.729C279.574 237.994 279.646 237.24 279.902 236.541C280.857 233.93 280.952 229.161 280.952 229.161C280.952 229.161 281.325 227.943 281.006 227.253C280.688 226.563 280.898 225.504 280.898 225.504C280.849 225.085 280.742 224.676 280.58 224.286C280.316 223.65 280.634 222.483 280.634 222.483C280.598 221.353 280.419 220.231 280.103 219.145C279.626 217.768 276.126 201.393 276.975 199.431C276.975 199.431 284.398 198.159 287.211 199.113L286.839 211.832C286.839 211.832 285.512 215.647 286.625 216.655C287.739 217.663 286.679 220.789 286.679 220.789C286.679 220.789 286.52 221.371 287.475 223.332C288.429 225.294 287.475 226.194 287.475 226.194V229.956C287.475 229.956 286.734 232.499 287.58 234.566C288.426 236.633 287.484 240.925 287.112 240.992Z" fill="#3F3D56"/>
<path opacity="0.1" d="M276.734 107.24C280.863 107.24 284.211 103.895 284.211 99.7681C284.211 95.6413 280.863 92.2959 276.734 92.2959C272.604 92.2959 269.257 95.6413 269.257 99.7681C269.257 103.895 272.604 107.24 276.734 107.24Z" fill="black"/>
<path d="M276.734 106.922C280.863 106.922 284.211 103.576 284.211 99.4497C284.211 95.3229 280.863 91.9775 276.734 91.9775C272.604 91.9775 269.257 95.3229 269.257 99.4497C269.257 103.576 272.604 106.922 276.734 106.922Z" fill="#FBBEBE"/>
<path opacity="0.1" d="M261.938 178.14L272.438 172.576C272.438 172.576 272.438 173.619 272.419 175.224C270.886 176.14 268.572 177.517 266.348 178.817C265.139 179.526 263.959 180.213 262.947 180.789C262.712 180.916 262.466 181.023 262.212 181.107C262.072 179.711 261.938 178.14 261.938 178.14Z" fill="black"/>
<path opacity="0.1" d="M287.485 172.563C287.485 172.563 287.485 177.177 287.355 181.918H287.316C286.532 181.945 285.746 181.921 284.965 181.844C283.594 181.698 282.496 181.336 282.102 180.617C281.303 179.218 279.066 177.437 277.176 176.112C277.078 173.396 276.998 170.941 276.998 170.941L287.485 172.563Z" fill="black"/>
<path d="M285.531 132.153C285.265 134.222 285.214 136.314 285.378 138.394C290.202 142.369 289.301 150.741 289.301 150.741C289.301 150.741 293.014 167.701 292.219 169.237C291.424 170.773 294.02 180.207 294.02 180.207C291.807 180.626 289.566 180.883 287.316 180.976C286.531 181.004 285.746 180.98 284.965 180.903C283.593 180.757 282.496 180.394 282.101 179.676C280.618 177.081 274.201 173.211 274.201 173.211C274.201 173.211 270.134 175.647 266.348 177.863C265.139 178.572 263.959 179.259 262.947 179.835C262.126 180.27 261.218 180.519 260.29 180.563C255.788 180.897 249.79 178.08 250.745 177.081C251.912 175.86 257.694 154.452 257.694 154.452C257.694 154.452 260.608 141.202 263.154 139.348C263.6 139.011 263.933 138.547 264.108 138.016C264.98 135.596 263.523 131.717 263.523 131.717C263.523 131.717 255.304 121.596 255.673 121.011C256.042 120.426 256.046 117.304 256.046 117.304C256.046 117.304 257.054 112.375 257.636 109.99C258.219 107.606 262.409 107.021 263.628 107.234C264.846 107.447 267.602 108.188 268.766 107.234C269.931 106.28 271.897 107.606 271.897 107.606L276.727 108.935L281.07 106.391C281.07 106.391 285.423 106.614 285.795 107.196C286.167 107.777 291.894 108.893 291.894 108.893C294.809 110.852 294.704 120.181 294.704 120.181C294.704 120.181 287.704 126.273 286.272 129.402C285.901 130.281 285.652 131.206 285.531 132.153Z" fill="#575A89"/>
<path d="M293.119 118.89L294.71 120.162L296.355 134.947L297.997 149.787C297.997 149.787 298.633 151.272 299.165 151.113C299.696 150.954 299.642 159.908 299.642 159.908C299.642 159.908 293.552 156.165 291.369 161.135L289.67 149.151C289.67 149.151 287.494 136.909 287.548 135.955C287.602 135.001 286.435 124.668 286.435 124.668L293.119 118.89Z" fill="#575A89"/>
<path d="M256.847 119.58L255.68 121.011C255.68 121.011 255.788 127.157 254.884 128.642C253.981 130.127 257.379 138.817 258.651 138.286C259.924 137.755 262.788 124.191 262.788 124.032C262.788 123.873 256.847 119.58 256.847 119.58Z" fill="#575A89"/>
<path d="M256.743 128.324C256.743 128.324 253.03 132.086 253.294 133.889C253.558 135.691 257.112 141.354 262.203 138.312C262.203 138.312 266.924 129.437 256.743 128.324Z" fill="#575A89"/>
<path opacity="0.1" d="M271.945 241.002C271.019 241.037 265.756 241.002 265.756 241.002C265.679 240.921 265.607 240.837 265.54 240.748C266.886 240.289 269.794 239.602 271.945 241.002Z" fill="black"/>
<path opacity="0.1" d="M286.998 241.002C286.072 241.037 280.809 241.002 280.809 241.002C280.732 240.921 280.66 240.837 280.593 240.748C281.932 240.289 284.84 239.602 286.998 241.002Z" fill="black"/>
<path opacity="0.1" d="M266.723 147.796C265.912 155.574 266.179 171.008 266.348 177.863C265.139 178.572 263.958 179.259 262.947 179.835C262.125 180.27 261.218 180.518 260.29 180.563C259.953 178.49 264.623 157.195 266.723 147.796Z" fill="black"/>
<path opacity="0.1" d="M267.716 143.383C267.694 143.495 267.309 145.186 266.724 147.797C266.953 145.568 267.271 143.968 267.716 143.383Z" fill="black"/>
<path opacity="0.1" d="M280.634 142.544C280.634 142.544 285.143 170.843 271.792 174.34C271.789 174.328 281.029 172.926 280.634 142.544Z" fill="black"/>
<path opacity="0.1" d="M287.316 180.976C286.532 181.004 285.746 180.98 284.965 180.903L281.363 142.21C283.661 143.711 286.41 171.17 287.316 180.976Z" fill="black"/>
<path opacity="0.1" d="M271.165 95.0558C271.404 95.0368 271.645 95.0616 271.875 95.1289C272.212 95.2971 272.516 95.5255 272.772 95.803C273.187 96.1495 273.683 96.3853 274.214 96.4881C274.745 96.591 275.293 96.5577 275.807 96.3912C276.17 96.2292 276.555 96.122 276.95 96.0733C277.557 96.0733 278.082 96.5184 278.397 97.0272C278.712 97.5359 278.874 98.14 279.145 98.6838C279.415 99.2275 279.848 99.7426 280.443 99.8761C280.728 99.8872 281.009 99.9519 281.27 100.067C281.431 100.197 281.553 100.367 281.627 100.56C282.123 101.631 282.518 102.897 283.577 103.421C283.967 103.602 284.392 103.694 284.821 103.692C285.258 103.724 285.696 103.645 286.094 103.463C286.486 103.244 286.809 102.922 287.029 102.531C287.691 101.437 287.768 100.083 287.612 98.8141C287.417 97.2137 286.847 95.6818 285.948 94.3435C285 92.99 283.71 91.9122 282.209 91.22C280.708 90.5279 279.05 90.2463 277.405 90.404C276.83 90.4685 276.261 90.5748 275.702 90.7219C273.679 91.2625 271.693 92.2736 270.465 93.9683C270.168 94.3914 269.842 94.793 269.488 95.1703C270.045 95.1162 270.605 95.0685 271.165 95.0558Z" fill="black"/>
<path d="M271.165 94.7379C271.404 94.7189 271.645 94.7437 271.875 94.811C272.212 94.9792 272.516 95.2077 272.772 95.4851C273.187 95.8317 273.683 96.0674 274.214 96.1703C274.745 96.2731 275.293 96.2398 275.807 96.0734C276.17 95.9113 276.555 95.8041 276.95 95.7554C277.557 95.7554 278.082 96.2006 278.397 96.7093C278.712 97.218 278.874 97.8222 279.145 98.3659C279.415 98.9096 279.848 99.4247 280.443 99.5583C280.728 99.5693 281.009 99.6341 281.27 99.749C281.431 99.8791 281.553 100.049 281.627 100.242C282.123 101.313 282.518 102.579 283.577 103.104C283.967 103.284 284.392 103.376 284.821 103.374C285.258 103.406 285.696 103.327 286.094 103.145C286.486 102.926 286.809 102.604 287.029 102.213C287.691 101.119 287.768 99.7649 287.612 98.4963C287.417 96.8958 286.847 95.3639 285.948 94.0257C285 92.6722 283.71 91.5943 282.209 90.9021C280.708 90.21 279.05 89.9284 277.405 90.0861C276.83 90.1506 276.261 90.2569 275.702 90.404C273.679 90.9446 271.693 91.9557 270.465 93.6505C270.168 94.0735 269.842 94.4751 269.488 94.8524C270.045 94.7983 270.605 94.7506 271.165 94.7379Z" fill="#3F3D56"/>
<path opacity="0.1" d="M263.052 112.531C263.052 112.531 263.424 115.501 262.152 116.241C260.879 116.982 263.052 112.531 263.052 112.531Z" fill="black"/>
<path opacity="0.1" d="M290.043 135.533C290.043 135.533 293.066 131.081 293.492 132.353C293.918 133.625 290.043 135.533 290.043 135.533Z" fill="black"/>
<path opacity="0.1" d="M290.256 137.014C290.256 137.014 293.237 133.358 293.524 134.789C293.81 136.219 290.256 137.014 290.256 137.014Z" fill="black"/>
<path opacity="0.1" d="M281.5 132.661C280.419 132.677 279.363 132.33 278.503 131.676H278.242C277.349 132.491 276.177 132.931 274.968 132.906C274.339 132.921 273.714 132.808 273.131 132.574C272.547 132.34 272.017 131.99 271.573 131.545H271.226C270.31 132.291 269.159 132.688 267.978 132.666C266.797 132.645 265.662 132.206 264.773 131.428L263.529 131.405C263.529 131.405 264.987 135.284 264.115 137.704L285.378 138.083C285.214 136.002 285.265 133.911 285.531 131.841V131.812L284.363 131.79C283.523 132.372 282.522 132.677 281.5 132.661Z" fill="black"/>
<path opacity="0.1" d="M281.5 133.297C280.419 133.313 279.363 132.966 278.503 132.312H278.242C277.349 133.127 276.177 133.567 274.968 133.542C274.339 133.557 273.714 133.444 273.131 133.21C272.547 132.976 272.017 132.626 271.573 132.181H271.226C270.31 132.927 269.159 133.324 267.978 133.303C266.797 133.281 265.662 132.842 264.773 132.064L263.529 132.042C263.529 132.042 264.987 135.921 264.115 138.34L285.378 138.719C285.214 136.639 285.265 134.547 285.531 132.477V132.448L284.363 132.426C283.523 133.008 282.522 133.313 281.5 133.297Z" fill="black"/>
<path d="M281.5 132.979C280.419 132.994 279.363 132.647 278.503 131.993H278.242C277.349 132.808 276.177 133.249 274.968 133.224C274.339 133.239 273.714 133.125 273.131 132.891C272.547 132.658 272.017 132.308 271.573 131.863H271.226C270.31 132.609 269.159 133.006 267.978 132.984C266.797 132.963 265.662 132.524 264.773 131.745L263.529 131.723C263.529 131.723 264.987 135.602 264.115 138.022L285.378 138.4C285.214 136.32 285.265 134.228 285.531 132.159V132.13L284.363 132.108C283.523 132.69 282.522 132.995 281.5 132.979Z" fill="#3F3D56"/>
<path opacity="0.1" d="M280.555 111.777C280.555 111.777 285.031 112.064 285.06 112.7C285.089 113.336 280.555 111.777 280.555 111.777Z" fill="black"/>
<path opacity="0.1" d="M269.679 109.065C269.679 109.065 265.203 109.351 265.174 109.988C265.145 110.624 269.679 109.065 269.679 109.065Z" fill="black"/>
<path opacity="0.1" d="M286.788 122.067C286.744 122.035 286.699 122.01 286.655 121.981C287.8 123.011 287.609 125.262 286.203 127.119C284.796 128.976 282.661 129.749 281.363 128.916C281.405 128.951 281.44 128.989 281.484 129.024C282.757 129.997 284.984 129.234 286.454 127.313C287.924 125.393 288.067 123.043 286.788 122.067Z" fill="black"/>
<path opacity="0.1" d="M262.197 126.881C261.064 124.839 261.21 122.585 262.492 121.729C262.445 121.752 262.394 121.771 262.346 121.796C260.94 122.578 260.755 124.922 261.92 127.033C263.084 129.144 265.184 130.213 266.591 129.443C266.637 129.417 266.682 129.387 266.724 129.354C265.321 129.99 263.329 128.922 262.197 126.881Z" fill="black"/>
<path opacity="0.1" d="M263.711 109.667L263.301 110.303L262.254 109.746L262.804 108.9C263.168 109.072 263.481 109.336 263.711 109.667Z" fill="black"/>
<path d="M257.061 133.199C257.061 133.199 257.993 128.817 256.743 127.424C255.492 126.032 255.893 118.731 257.802 118.89C259.711 119.049 262.575 124.823 262.097 126.044C261.62 127.265 259.816 133.517 259.816 133.517L257.061 133.199Z" fill="#FBBEBE"/>
<path opacity="0.1" d="M286.998 101.587C286.778 101.977 286.454 102.3 286.062 102.518C285.664 102.7 285.226 102.779 284.79 102.747C284.36 102.75 283.935 102.657 283.546 102.477C282.486 101.949 282.091 100.684 281.595 99.6152C281.532 99.4224 281.42 99.2493 281.271 99.1128C281.013 98.9957 280.736 98.9277 280.453 98.9125C279.858 98.7789 279.428 98.2606 279.155 97.7201C278.881 97.1795 278.719 96.5818 278.407 96.0635C278.095 95.5452 277.567 95.0905 276.959 95.1096C276.564 95.162 276.178 95.2746 275.817 95.4435C275.302 95.6085 274.754 95.6409 274.223 95.5375C273.693 95.4341 273.197 95.1983 272.782 94.852C272.526 94.5746 272.222 94.3461 271.884 94.178C271.654 94.1106 271.414 94.0858 271.175 94.1048C270.809 94.1048 270.446 94.1398 270.08 94.1684C269.899 94.4059 269.705 94.6331 269.498 94.8489C270.055 94.8012 270.615 94.7535 271.175 94.7408C271.414 94.7218 271.654 94.7466 271.884 94.8139C272.222 94.9821 272.526 95.2105 272.782 95.488C273.197 95.8342 273.693 96.07 274.223 96.1734C274.754 96.2768 275.302 96.2445 275.817 96.0794C276.178 95.9105 276.564 95.7979 276.959 95.7455C277.567 95.7455 278.092 96.1907 278.407 96.6994C278.722 97.2082 278.884 97.8123 279.155 98.356C279.425 98.8997 279.858 99.4148 280.453 99.5484C280.736 99.5637 281.013 99.6316 281.271 99.7487C281.431 99.8787 281.554 100.049 281.627 100.242C282.123 101.313 282.518 102.579 283.577 103.103C283.967 103.284 284.392 103.376 284.821 103.373C285.258 103.406 285.696 103.327 286.094 103.145C286.486 102.926 286.809 102.604 287.03 102.213C287.524 101.314 287.745 100.291 287.666 99.2686C287.642 100.085 287.412 100.882 286.998 101.587Z" fill="black"/>
<path d="M258.47 136.674C260.052 136.674 261.334 135.806 261.334 134.735C261.334 133.663 260.052 132.795 258.47 132.795C256.889 132.795 255.606 133.663 255.606 134.735C255.606 135.806 256.889 136.674 258.47 136.674Z" fill="#575A89"/>
<path d="M165.13 242.7C219.341 242.7 263.287 198.782 263.287 144.607C263.287 90.4325 219.341 46.5151 165.13 46.5151C110.919 46.5151 66.9727 90.4325 66.9727 144.607C66.9727 198.782 110.919 242.7 165.13 242.7Z" fill="url(#paint6_linear_2280_14978)"/>
<path d="M216.633 193.901C216.633 209.386 192.274 195.224 166.158 195.224C140.042 195.224 113.627 208.801 113.627 193.316C113.627 184.486 122.046 172.207 134.124 163.288C143.224 156.566 154.398 151.752 165.623 151.752C177.167 151.752 188.475 156.963 197.495 164.118C208.879 173.138 216.633 185.259 216.633 193.901Z" fill="#444053"/>
<path d="M197.492 164.111C183.61 162.022 158.503 159.475 134.124 163.281C143.224 156.56 154.398 151.746 165.623 151.746C177.164 151.746 188.472 156.957 197.492 164.111Z" fill="#F6F8FB"/>
<path opacity="0.05" d="M113.627 75.3643C113.627 75.3643 84.0585 94.2546 84.3003 123.803C84.5421 153.352 113.627 75.3643 113.627 75.3643Z" fill="black"/>
<path d="M263.249 22.0127C263.249 22.0127 236.459 20.4006 239.618 39.1606C239.618 39.1606 238.982 42.4738 241.998 43.9809C241.998 43.9809 242.046 42.5914 244.744 43.062C245.706 43.2228 246.683 43.2697 247.655 43.2019C248.97 43.1126 250.219 42.5968 251.213 41.7329C251.213 41.7329 258.744 38.6264 261.674 26.3243C261.674 26.3243 263.841 23.6407 263.755 22.9539L259.234 24.8807C259.234 24.8807 260.777 28.1399 259.552 30.849C259.552 30.849 259.406 25.0016 258.537 25.1256C258.362 25.1542 256.189 26.2544 256.189 26.2544C256.189 26.2544 258.846 31.9332 256.825 36.0572C256.825 36.0572 257.586 29.062 255.343 26.6645L252.161 28.5214C252.161 28.5214 255.266 34.3847 253.16 39.1701C253.16 39.1701 253.701 31.8315 251.493 28.973L248.607 31.221C248.607 31.221 251.525 37.0016 249.746 40.9698C249.746 40.9698 249.514 32.4261 247.983 31.7806C247.983 31.7806 245.46 34.0063 245.075 34.9189C245.075 34.9189 247.073 39.1129 245.836 41.3259C245.836 41.3259 245.075 35.6343 244.451 35.6025C244.451 35.6025 241.938 39.3736 241.674 41.9618C241.674 41.9618 241.785 38.1145 243.841 35.2432C243.841 35.2432 241.41 35.6598 239.994 37.2369C239.994 37.2369 240.385 34.5691 244.448 34.337C244.448 34.337 246.526 31.4753 247.083 31.3036C247.083 31.3036 243.026 30.9634 240.567 32.054C240.567 32.054 242.73 29.5389 247.824 30.6804L250.688 28.3593C250.688 28.3593 245.349 27.628 243.083 28.4356C243.083 28.4356 245.689 26.2098 251.455 27.8315L254.557 25.9777C254.557 25.9777 250.004 24.9984 247.29 25.3418C247.29 25.3418 250.153 23.7997 255.464 25.4722L257.691 24.4769C257.691 24.4769 254.353 23.8219 253.376 23.7202C252.4 23.6184 252.349 23.345 252.349 23.345C254.468 23.0006 256.642 23.2527 258.626 24.0731C258.626 24.0731 263.329 22.3084 263.249 22.0127Z" fill="url(#paint7_linear_2280_14978)"/>
<path d="M235.771 13.6726C235.771 13.6726 223.681 12.9413 225.093 21.4182C225.093 21.4182 224.81 22.9158 226.169 23.5963C226.169 23.5963 226.188 22.9603 227.41 23.1829C227.844 23.2543 228.285 23.2756 228.724 23.2465C229.318 23.2041 229.883 22.971 230.334 22.582C230.334 22.582 233.735 21.1765 235.059 15.6185C235.059 15.6185 236.039 14.4071 236.013 14.0955L233.97 14.9667C233.97 14.9667 234.67 16.4389 234.12 17.663C234.12 17.663 234.053 15.0207 233.662 15.0843C233.582 15.0843 232.599 15.5931 232.599 15.5931C232.599 15.5931 233.802 18.1591 232.895 20.0223C232.895 20.0223 233.239 16.8618 232.227 15.7775L230.789 16.6169C230.789 16.6169 232.192 19.2688 231.24 21.4309C231.24 21.4309 231.482 18.1145 230.486 16.8236L229.182 17.8379C229.182 17.8379 230.499 20.4484 229.697 22.2417C229.697 22.2417 229.592 18.3816 228.899 18.0891C228.899 18.0891 227.76 19.0939 227.585 19.5072C227.585 19.5072 228.488 21.415 227.928 22.4039C227.928 22.4039 227.585 19.8316 227.292 19.822C227.292 19.822 226.156 21.5231 226.038 22.6837C226.093 21.6037 226.43 20.5568 227.015 19.6471C226.36 19.7709 225.756 20.0838 225.278 20.547C225.278 20.547 225.453 19.3419 227.295 19.237C227.295 19.237 228.234 17.946 228.485 17.8665C228.485 17.8665 226.652 17.7139 225.542 18.2068C225.542 18.2068 226.519 17.0684 228.822 17.5708L230.095 16.5247C230.095 16.5247 227.683 16.2068 226.659 16.5565C226.659 16.5565 227.836 15.5517 230.442 16.2862L231.842 15.4468C231.842 15.4468 229.786 15.0048 228.558 15.1638C228.558 15.1638 229.853 14.4675 232.252 15.2242L233.255 14.7727C233.255 14.7727 231.746 14.477 231.307 14.4325C230.868 14.388 230.84 14.264 230.84 14.264C231.795 14.1052 232.775 14.2153 233.671 14.582C233.671 14.582 235.806 13.8061 235.771 13.6726Z" fill="url(#paint8_linear_2280_14978)"/>
<path opacity="0.1" d="M341.432 232.118C346.164 232.118 350 231.47 350 230.671C350 229.872 346.164 229.224 341.432 229.224C336.699 229.224 332.863 229.872 332.863 230.671C332.863 231.47 336.699 232.118 341.432 232.118Z" fill="url(#paint9_linear_2280_14978)"/>
<path opacity="0.1" d="M14.881 256.185C19.6132 256.185 23.4495 255.537 23.4495 254.738C23.4495 253.939 19.6132 253.291 14.881 253.291C10.1487 253.291 6.3125 253.939 6.3125 254.738C6.3125 255.537 10.1487 256.185 14.881 256.185Z" fill="url(#paint10_linear_2280_14978)"/>
<path opacity="0.1" d="M64.6212 258C69.3535 258 73.1897 257.352 73.1897 256.553C73.1897 255.754 69.3535 255.106 64.6212 255.106C59.889 255.106 56.0527 255.754 56.0527 256.553C56.0527 257.352 59.889 258 64.6212 258Z" fill="url(#paint11_linear_2280_14978)"/>
<path d="M322.679 248.337C329.744 248.337 335.472 247.369 335.472 246.175C335.472 244.981 329.744 244.013 322.679 244.013C315.613 244.013 309.885 244.981 309.885 246.175C309.885 247.369 315.613 248.337 322.679 248.337Z" fill="url(#paint12_linear_2280_14978)"/>
<path d="M327.966 242.642C328.55 242.166 328.976 241.524 329.188 240.801C329.344 240.073 329.032 239.195 328.335 238.928C327.552 238.629 326.715 239.173 326.082 239.72C325.449 240.267 324.72 240.89 323.89 240.776C324.317 240.389 324.637 239.899 324.817 239.352C324.998 238.805 325.034 238.221 324.921 237.656C324.885 237.422 324.786 237.203 324.635 237.02C324.199 236.556 323.413 236.753 322.891 237.119C321.236 238.283 320.775 240.528 320.766 242.55C320.6 241.822 320.74 241.062 320.737 240.324C320.734 239.586 320.527 238.734 319.897 238.343C319.506 238.135 319.067 238.032 318.624 238.044C317.88 238.016 317.052 238.089 316.543 238.633C315.907 239.31 316.076 240.442 316.626 241.176C317.177 241.911 318.01 242.388 318.777 242.9C319.394 243.266 319.92 243.767 320.317 244.365C320.363 244.45 320.402 244.538 320.431 244.629H325.093C326.136 244.1 327.102 243.431 327.966 242.642Z" fill="url(#paint13_linear_2280_14978)"/>
<path d="M18.8805 215.981C18.8805 215.981 20.6273 218.264 18.0724 221.704C15.5174 225.145 13.4111 228.064 14.2543 230.213C14.2543 230.213 18.1074 223.809 21.2541 223.717C24.4009 223.625 22.3296 219.832 18.8805 215.981Z" fill="url(#paint14_linear_2280_14978)"/>
<path opacity="0.1" d="M18.8802 215.981C19.0318 216.202 19.1518 216.442 19.2365 216.696C22.2974 220.289 23.9264 223.644 20.9865 223.727C18.2438 223.806 14.9411 228.703 14.168 229.94C14.195 230.036 14.2269 230.13 14.2634 230.223C14.2634 230.223 18.1165 223.819 21.2633 223.727C24.4101 223.634 22.3292 219.832 18.8802 215.981Z" fill="black"/>
<path d="M22.1287 218.89C22.1287 219.695 22.0364 220.347 21.9251 220.347C21.8137 220.347 21.7246 219.711 21.7246 218.89C21.7246 218.07 21.836 218.464 21.9505 218.464C22.0651 218.464 22.1287 218.086 22.1287 218.89Z" fill="#FFD037"/>
<path d="M23.2299 219.851C22.5235 220.236 21.9094 220.468 21.8554 220.369C21.8013 220.271 22.3326 219.883 23.039 219.498C23.7453 219.113 23.4653 219.393 23.5194 219.498C23.5735 219.603 23.949 219.466 23.2299 219.851Z" fill="#FFD037"/>
<path d="M9.64729 215.981C9.64729 215.981 7.9005 218.264 10.4523 221.704C13.004 225.145 15.1136 228.064 14.2704 230.213C14.2704 230.213 10.4141 223.809 7.27051 223.717C4.12693 223.625 6.19508 219.832 9.64729 215.981Z" fill="url(#paint15_linear_2280_14978)"/>
<path opacity="0.1" d="M9.64701 215.981C9.49393 216.201 9.37387 216.442 9.29066 216.696C6.22981 220.289 4.59756 223.644 7.54069 223.727C10.2802 223.806 13.586 228.703 14.356 229.94C14.3301 230.035 14.2993 230.13 14.2637 230.223C14.2637 230.223 10.4075 223.819 7.26388 223.727C4.1203 223.634 6.1948 219.832 9.64701 215.981Z" fill="black"/>
<path d="M6.39844 218.89C6.39844 219.695 6.48753 220.347 6.59889 220.347C6.71025 220.347 6.79934 219.711 6.79934 218.89C6.79934 218.07 6.68798 218.464 6.57662 218.464C6.46526 218.464 6.39844 218.086 6.39844 218.89Z" fill="#FFD037"/>
<path d="M5.28149 219.851C5.98784 220.236 6.6051 220.468 6.65919 220.369C6.71328 220.271 6.18193 219.883 5.47557 219.498C4.76922 219.113 5.04604 219.393 4.99513 219.498C4.94422 219.603 4.57514 219.466 5.28149 219.851Z" fill="#FFD037"/>
<path d="M6.95508 229.924C6.95508 229.924 11.8423 229.774 13.3186 228.725C14.7949 227.676 20.8371 226.426 21.203 228.089C21.5689 229.752 28.5465 236.451 23.0293 236.496C17.5122 236.541 10.21 235.634 8.74005 234.741C7.27007 233.847 6.95508 229.924 6.95508 229.924Z" fill="#A8A8A8"/>
<path opacity="0.2" d="M23.1216 235.927C17.6044 235.972 10.3023 235.065 8.83232 234.172C7.71234 233.491 7.26689 231.046 7.11735 229.917H6.95508C6.95508 229.917 7.27326 233.857 8.73368 234.751C10.1941 235.644 17.5058 236.55 23.023 236.506C24.6138 236.506 25.1643 235.924 25.1357 235.088C24.9129 235.6 24.3084 235.917 23.1216 235.927Z" fill="black"/>
<path d="M130.233 131.746C132.1 131.641 140.892 130.979 146.476 127.796C147.372 127.269 148.385 126.971 149.425 126.928C151.2 126.878 153.243 127.618 151.935 131.765C149.816 138.547 137.512 146.178 129.876 145.755C122.533 145.348 113.821 142.391 108.068 131.994C107.517 130.993 107.246 129.863 107.283 128.722C107.349 126.623 108.113 123.994 112.055 126.925C117.381 130.884 127.487 131.634 129.514 131.746C129.753 131.758 129.993 131.758 130.233 131.746Z" fill="#444053"/>
<path d="M200.867 131.746C202.735 131.641 211.526 130.979 217.11 127.796C218.007 127.269 219.02 126.971 220.06 126.928C221.835 126.878 223.878 127.618 222.57 131.765C220.451 138.547 208.147 146.178 200.511 145.755C193.168 145.348 184.456 142.391 178.703 131.994C178.152 130.993 177.881 129.863 177.917 128.722C177.984 126.623 178.748 123.994 182.69 126.925C188.016 130.884 198.122 131.634 200.148 131.746C200.388 131.758 200.628 131.758 200.867 131.746Z" fill="#444053"/>
</g>
<defs>
<linearGradient id="paint0_linear_2280_14978" x1="313.289" y1="182.935" x2="192.114" y2="-0.634052" gradientUnits="userSpaceOnUse">
<stop stop-color="#F5484A"/>
<stop offset="1" stop-color="#FF7475"/>
</linearGradient>
<linearGradient id="paint1_linear_2280_14978" x1="348.899" y1="39.3038" x2="288.257" y2="-111.101" gradientUnits="userSpaceOnUse">
<stop stop-color="#F5484A"/>
<stop offset="1" stop-color="#FF7475"/>
</linearGradient>
<linearGradient id="paint2_linear_2280_14978" x1="335.163" y1="126.681" x2="251.678" y2="-43.9789" gradientUnits="userSpaceOnUse">
<stop stop-color="#F5484A"/>
<stop offset="1" stop-color="#FF7475"/>
</linearGradient>
<linearGradient id="paint3_linear_2280_14978" x1="349.069" y1="78.7093" x2="290.195" y2="-72.8914" gradientUnits="userSpaceOnUse">
<stop stop-color="#F5484A"/>
<stop offset="1" stop-color="#FF7475"/>
</linearGradient>
<linearGradient id="paint4_linear_2280_14978" x1="315.65" y1="248.356" x2="282.131" y2="142.646" gradientUnits="userSpaceOnUse">
<stop stop-color="#F5484A"/>
<stop offset="1" stop-color="#FF7475"/>
</linearGradient>
<linearGradient id="paint5_linear_2280_14978" x1="283.858" y1="241.014" x2="283.858" y2="83.927" gradientUnits="userSpaceOnUse">
<stop stop-color="#808080" stop-opacity="0.25"/>
<stop offset="0.54" stop-color="#808080" stop-opacity="0.12"/>
<stop offset="1" stop-color="#808080" stop-opacity="0.1"/>
</linearGradient>
<linearGradient id="paint6_linear_2280_14978" x1="263.287" y1="242.7" x2="29.7146" y2="174.932" gradientUnits="userSpaceOnUse">
<stop stop-color="#F5484A"/>
<stop offset="1" stop-color="#FF7475"/>
</linearGradient>
<linearGradient id="paint7_linear_2280_14978" x1="263.758" y1="43.9809" x2="235.234" y2="34.8103" gradientUnits="userSpaceOnUse">
<stop stop-color="#F5484A"/>
<stop offset="1" stop-color="#FF7475"/>
</linearGradient>
<linearGradient id="paint8_linear_2280_14978" x1="236.014" y1="23.5963" x2="223.115" y2="19.4444" gradientUnits="userSpaceOnUse">
<stop stop-color="#F5484A"/>
<stop offset="1" stop-color="#FF7475"/>
</linearGradient>
<linearGradient id="paint9_linear_2280_14978" x1="350" y1="232.118" x2="344.402" y2="222.505" gradientUnits="userSpaceOnUse">
<stop stop-color="#F5484A"/>
<stop offset="1" stop-color="#FF7475"/>
</linearGradient>
<linearGradient id="paint10_linear_2280_14978" x1="23.4495" y1="256.185" x2="17.8513" y2="246.571" gradientUnits="userSpaceOnUse">
<stop stop-color="#F5484A"/>
<stop offset="1" stop-color="#FF7475"/>
</linearGradient>
<linearGradient id="paint11_linear_2280_14978" x1="73.1897" y1="258" x2="67.5916" y2="248.387" gradientUnits="userSpaceOnUse">
<stop stop-color="#F5484A"/>
<stop offset="1" stop-color="#FF7475"/>
</linearGradient>
<linearGradient id="paint12_linear_2280_14978" x1="335.472" y1="248.337" x2="327.102" y2="233.977" gradientUnits="userSpaceOnUse">
<stop stop-color="#F5484A"/>
<stop offset="1" stop-color="#FF7475"/>
</linearGradient>
<linearGradient id="paint13_linear_2280_14978" x1="329.227" y1="244.629" x2="315.519" y2="238.026" gradientUnits="userSpaceOnUse">
<stop stop-color="#F5484A"/>
<stop offset="1" stop-color="#FF7475"/>
</linearGradient>
<linearGradient id="paint14_linear_2280_14978" x1="22.8055" y1="230.213" x2="11.8778" y2="228.267" gradientUnits="userSpaceOnUse">
<stop stop-color="#F5484A"/>
<stop offset="1" stop-color="#FF7475"/>
</linearGradient>
<linearGradient id="paint15_linear_2280_14978" x1="14.459" y1="230.213" x2="3.53335" y2="228.268" gradientUnits="userSpaceOnUse">
<stop stop-color="#F5484A"/>
<stop offset="1" stop-color="#FF7475"/>
</linearGradient>
<clipPath id="clip0_2280_14978">
<rect width="350" height="258" fill="white"/>
</clipPath>
</defs>
</svg>
