<svg width="24" height="24" viewBox="0 0 24 24" fill="none" xmlns="http://www.w3.org/2000/svg">
<path d="M4.125 8.25H19.875C20.4938 8.25 21 7.74375 21 7.125C21 6.50625 20.4938 6 19.875 6H4.125C3.50625 6 3 6.50625 3 7.125C3 7.74375 3.50625 8.25 4.125 8.25Z" fill="white"/>
<path d="M4.125 12.75H19.875C20.4938 12.75 21 12.2438 21 11.625C21 11.0062 20.4938 10.5 19.875 10.5H4.125C3.50625 10.5 3 11.0062 3 11.625C3 12.2438 3.50625 12.75 4.125 12.75Z" fill="white"/>
<path d="M4.125 17.25H19.875C20.4938 17.25 21 16.7438 21 16.125C21 15.5062 20.4938 15 19.875 15H4.125C3.50625 15 3 15.5062 3 16.125C3 16.7438 3.50625 17.25 4.125 17.25Z" fill="white"/>
</svg>
