<svg width="24" height="24" viewBox="0 0 24 24" fill="none" xmlns="http://www.w3.org/2000/svg">
<path d="M6.4945 12C6.4945 15.0371 8.9651 17.5077 12.0022 17.5077C15.0393 17.5077 17.5099 15.0371 17.5099 12C17.5099 8.9629 15.0393 6.4923 12.0022 6.4923C8.9651 6.4923 6.4945 8.9629 6.4945 12ZM12.0022 8.6923C13.826 8.6923 15.3099 10.1762 15.3099 12C15.3099 13.8238 13.826 15.3077 12.0022 15.3077C10.1784 15.3077 8.6945 13.8238 8.6945 12C8.6945 10.1762 10.1784 8.6923 12.0022 8.6923ZM10.9 20.8C10.9 20.1925 11.3925 19.7 12 19.7C12.6075 19.7 13.1 20.1925 13.1 20.8V21.9C13.1 22.5075 12.6075 23 12 23C11.3925 23 10.9 22.5075 10.9 21.9V20.8ZM10.9 2.1C10.9 1.49249 11.3925 1 12 1C12.6075 1 13.1 1.49249 13.1 2.1V3.2C13.1 3.80751 12.6075 4.3 12 4.3C11.3925 4.3 10.9 3.80751 10.9 3.2V2.1ZM1 12C1 11.3925 1.49249 10.9 2.1 10.9H3.2C3.80751 10.9 4.3 11.3925 4.3 12C4.3 12.6075 3.80751 13.1 3.2 13.1H2.1C1.49249 13.1 1 12.6075 1 12ZM19.7 12C19.7 11.3925 20.1925 10.9 20.8 10.9H21.9C22.5075 10.9 23 11.3925 23 12C23 12.6075 22.5075 13.1 21.9 13.1H20.8C20.1925 13.1 19.7 12.6075 19.7 12ZM4.22126 19.7769C3.79157 19.3475 3.79112 18.651 4.22046 18.2212L4.99756 17.4434C5.42697 17.0136 6.12368 17.0134 6.55344 17.4429C6.98313 17.8723 6.98358 18.5688 6.55424 18.9986L5.77714 19.7764C5.34773 20.2062 4.65102 20.2064 4.22126 19.7769ZM17.4439 6.5561C17.0144 6.12659 17.0144 5.43021 17.4439 5.0007L18.2227 4.2219C18.6522 3.79239 19.3486 3.79239 19.7781 4.2219C20.2076 4.65141 20.2076 5.34779 19.7781 5.7773L18.9993 6.5561C18.5698 6.98561 17.8734 6.98561 17.4439 6.5561ZM6.55601 6.55674C6.12659 6.98646 5.43008 6.98658 5.00052 6.55702L4.22227 5.77877C3.7926 5.3491 3.79272 4.65243 4.22254 4.22291C4.65229 3.79346 5.34882 3.79375 5.77822 4.22355L6.5561 5.00217C6.98511 5.43158 6.98507 6.12738 6.55601 6.55674ZM19.7781 18.2227C20.2076 18.6522 20.2076 19.3486 19.7781 19.7781C19.3486 20.2076 18.6522 20.2076 18.2227 19.7781L17.4439 18.9993C17.0144 18.5698 17.0144 17.8734 17.4439 17.4439C17.8734 17.0144 18.5698 17.0144 18.9993 17.4439L19.7781 18.2227Z" fill="#212121"/>
</svg>
