<svg width="6000" height="6000" viewBox="0 0 6000 6000" fill="none" xmlns="http://www.w3.org/2000/svg">
<path fill-rule="evenodd" clip-rule="evenodd" d="M4831.6 4724.49V1891.64C4831.6 1786.55 4794.65 1725.25 4735.27 1694.6L2272.43 447.991C1935.54 273.11 1269.95 610.556 1079.2 907.223C999.051 1031.81 999.677 1123.6 1000.06 1179.21C1000.08 1182.85 1000.1 1186.33 1000.1 1189.66L1030.76 4004.71C1032.4 4064.65 1109.3 4145.39 1174.98 4184.79C1272.51 4243.62 2355.34 4907.31 2987.95 5295.05C3241.21 5450.28 3422.3 5561.27 3439.13 5571.52C3471.04 5590.58 3507.6 5600.43 3544.77 5599.99C3576.37 5600.11 3607.56 5592.9 3635.9 5578.91C3665.7 5563.93 3690.86 5541.11 3708.65 5512.9C3726.45 5484.69 3736.21 5452.16 3736.89 5418.81V2462.54C3736.89 2400.69 3700.21 2352.52 3640.83 2321.32L1402.14 1094.69C1427.59 1046.53 1527.21 944.17 1710.3 850.024C1881.19 762.152 2014.19 823.914 2065.18 847.594C2071.68 850.612 2076.84 853.011 2080.59 854.403C2080.59 854.403 4132.63 1933.24 4198.31 1966.91C4263.99 2000.57 4284.24 2055.58 4284.24 2113.32V4881.31C4284.24 5021.43 4437.5 5127.62 4557.92 5041.96C4574.56 5030.14 4590.88 5018.8 4606.74 5007.78C4733.83 4919.45 4831.6 4851.5 4831.6 4724.49ZM2208.02 3108.39L1953.59 3250.29L1591.15 2601.5C1484.77 2409.71 1464.95 2208.28 1530.11 2092.64C1557.62 2044.76 1631.05 2074.98 1672.57 2149.42L2208.02 3108.39ZM3021.84 3555.26C2878.89 3634.98 2688.41 3573.47 2554.67 3420.33L2422.52 3494.04L2957.08 4452.49C2965.09 4466.85 2971.38 4481.98 2975.59 4497.02C2979.8 4512.07 2981.86 4526.72 2981.64 4540.16C2981.41 4553.59 2978.92 4565.54 2974.29 4575.33C2969.67 4585.11 2963 4592.54 2954.68 4597.18C2946.36 4601.82 2936.54 4603.59 2925.78 4602.38C2915.03 4601.18 2903.55 4597.02 2892 4590.15C2880.45 4583.28 2869.06 4573.83 2858.48 4562.34C2847.89 4550.85 2838.33 4537.55 2830.32 4523.19L2295.75 3564.74L1739.3 3873.06C1722.49 3882.44 1699.94 3879.91 1676.62 3866.04C1653.29 3852.16 1631.11 3828.08 1614.93 3799.08C1598.76 3770.08 1589.93 3738.54 1590.38 3711.41C1590.83 3684.28 1600.52 3663.76 1617.33 3654.39L2431.84 3200.11C2371.82 3005.85 2419.58 2811.46 2562.53 2731.74C2735.12 2636.49 2977.4 2743.33 3103.69 2969.76C3230.85 3197.74 3193.55 3459.49 3021.84 3555.26Z" fill="url(#paint0_linear_2_2)"/>
<path d="M5046.7 485.548L5044.56 463.029C5040.31 418.481 4995.73 389.46 4953.28 403.611L4931.88 410.743C4753 472.896 4561.97 491.969 4374.32 466.412C4177.15 435.812 3975.33 463.004 3793.28 544.697C3696.77 585.791 3612.07 650.373 3546.9 732.563C3481.72 814.752 3438.14 911.939 3420.12 1015.27C3406.82 1091.28 3404.88 1168.52 3414.09 1244.5C3421.66 1306.89 3501.83 1313.03 3534.01 1259.05C3541.39 1246.69 3548.94 1234.44 3556.68 1222.29C3645.08 1092.24 3767.56 989.02 3910.71 923.942C3915.75 921.638 3920.82 919.378 3925.9 917.163C3972.03 897.046 3987.96 962.157 3945.5 989.179C3886.13 1026.48 3831.76 1071.2 3783.71 1122.26C3737.75 1173.3 3697.23 1228.98 3662.8 1288.4C3598.13 1412.61 3552.12 1545.68 3526.24 1683.3C3503.01 1798.27 3488.63 1914.82 3483.2 2031.92C3481.4 2070.73 3512.83 2102.56 3551.69 2102.56H3589.75C3626.43 2102.56 3656.72 2074.07 3659.98 2037.53C3666.54 1964.09 3676.14 1890.97 3688.75 1818.34C3696.71 1772.5 3747.48 1749.02 3790.7 1766.24C3888.59 1805.26 3993.49 1824.78 4099.46 1823.34C4227.36 1823.26 4353.95 1797.52 4471.74 1747.67C5133.68 1464.98 5046.7 524.69 5046.7 485.548Z" fill="#4AAF57"/>
<defs>
<linearGradient id="paint0_linear_2_2" x1="4831.61" y1="5600" x2="104.806" y2="4590.15" gradientUnits="userSpaceOnUse">
<stop stop-color="#F5484A"/>
<stop offset="1" stop-color="#FF7475"/>
</linearGradient>
</defs>
</svg>
