<svg width="200" height="200" viewBox="0 0 200 200" fill="none" xmlns="http://www.w3.org/2000/svg">
<path fill-rule="evenodd" clip-rule="evenodd" d="M161.053 157.483V63.0547C161.053 59.5516 159.821 57.5082 157.842 56.4864L75.7475 14.9329C64.5176 9.10359 42.3314 20.3518 35.9729 30.2407C33.3014 34.3935 33.3222 37.4534 33.3349 39.307C33.3357 39.4283 33.3365 39.5443 33.3365 39.6552L34.3582 133.49C34.4129 135.488 36.9764 138.179 39.1658 139.493C42.4157 141.453 78.4914 163.565 99.5806 176.491C108.032 181.671 114.076 185.375 114.637 185.717C115.701 186.352 116.92 186.681 118.159 186.666C119.212 186.67 120.252 186.43 121.196 185.964C122.19 185.464 123.028 184.704 123.621 183.763C124.215 182.823 124.54 181.739 124.563 180.627V82.0845C124.563 80.0228 123.34 78.4172 121.361 77.3772L46.7376 36.4897C47.586 34.8841 50.9066 31.4722 57.0096 28.3341C62.706 25.405 67.1392 27.4637 68.8389 28.253C69.0555 28.3536 69.2278 28.4336 69.3525 28.48C69.3525 28.48 137.754 64.4414 139.943 65.5634C142.133 66.6855 142.808 68.5192 142.808 70.444V162.71C142.808 167.381 147.916 170.921 151.93 168.065C152.485 167.671 153.029 167.293 153.558 166.926C157.794 163.982 161.053 161.717 161.053 157.483ZM73.6002 103.613L65.1195 108.343L53.0379 86.7165C49.492 80.3237 48.8314 73.6094 51.0033 69.7547C51.9205 68.1587 54.3681 69.1658 55.7521 71.6472L73.6002 103.613ZM100.728 118.509C95.9627 121.166 89.6134 119.116 85.1554 114.011L80.7502 116.468L98.569 148.416C98.8359 148.895 99.0456 149.399 99.186 149.901C99.3265 150.402 99.395 150.891 99.3875 151.339C99.3801 151.786 99.2969 152.185 99.1428 152.511C98.9886 152.837 98.7664 153.084 98.489 153.239C98.2115 153.394 97.8842 153.453 97.5258 153.413C97.1673 153.373 96.7847 153.234 96.3997 153.005C96.0148 152.776 95.6351 152.461 95.2823 152.078C94.9295 151.695 94.6105 151.252 94.3436 150.773L76.5248 118.825L57.9762 129.102C57.4159 129.415 56.6643 129.33 55.8869 128.868C55.1095 128.405 54.3699 127.602 53.8308 126.636C53.2917 125.669 52.9972 124.618 53.0122 123.714C53.0272 122.809 53.3504 122.125 53.9108 121.813L81.0611 106.67C79.0605 100.195 80.6525 93.7153 85.4173 91.0578C91.1704 87.883 99.2465 91.4442 103.456 98.9919C107.695 106.591 106.451 115.316 100.728 118.509Z" fill="url(#paint0_linear_2280_15703)"/>
<path d="M168.222 16.1849L168.151 15.4342C168.009 13.9493 166.523 12.9819 165.108 13.4536L164.395 13.6913C158.432 15.7631 152.065 16.3989 145.81 15.547C139.237 14.527 132.51 15.4334 126.442 18.1565C123.225 19.5263 120.401 21.679 118.229 24.4187C116.056 27.1583 114.604 30.3979 114.003 33.8424C113.56 36.376 113.495 38.9506 113.802 41.4833C114.054 43.5628 116.727 43.7676 117.799 41.9683C118.045 41.5563 118.297 41.1478 118.555 40.743C121.502 36.4079 125.584 32.9673 130.356 30.798C130.524 30.7212 130.693 30.6458 130.862 30.572C132.4 29.9015 132.931 32.0718 131.516 32.9725C129.537 34.216 127.724 35.7067 126.123 37.4087C124.591 39.1098 123.24 40.9658 122.092 42.9466C119.937 47.087 118.403 51.5224 117.54 56.11C116.766 59.9423 116.287 63.8272 116.106 67.7305C116.046 69.0243 117.093 70.0852 118.389 70.0852H119.657C120.88 70.0852 121.89 69.1355 121.998 67.9175C122.217 65.4697 122.537 63.0323 122.957 60.6113C123.223 59.0834 124.915 58.3005 126.356 58.8746C129.619 60.1751 133.115 60.8258 136.648 60.7781C140.911 60.7751 145.131 59.9174 149.057 58.2556C171.122 48.8324 168.222 17.4896 168.222 16.1849Z" fill="#4AAF57"/>
<defs>
<linearGradient id="paint0_linear_2280_15703" x1="161.053" y1="186.666" x2="3.49322" y2="153.005" gradientUnits="userSpaceOnUse">
<stop stop-color="#F5484A"/>
<stop offset="1" stop-color="#FF7475"/>
</linearGradient>
</defs>
</svg>
