<svg width="32" height="32" viewBox="0 0 32 32" fill="none" xmlns="http://www.w3.org/2000/svg">
<path fill-rule="evenodd" clip-rule="evenodd" d="M15.3725 4.66699C9.49081 4.66699 4.70587 9.75099 4.70587 16.0003C4.70587 22.2496 9.49081 27.3336 15.3725 27.3336C21.2542 27.3336 26.0391 22.2496 26.0391 16.0003C26.0391 9.75099 21.2542 4.66699 15.3725 4.66699ZM15.3725 29.3336C8.45301 29.3336 2.82352 23.3524 2.82352 16.0003C2.82352 8.64831 8.45301 2.66699 15.3725 2.66699C22.2921 2.66699 27.9215 8.64831 27.9215 16.0003C27.9215 23.3524 22.2921 29.3336 15.3725 29.3336Z" fill="#F5484A"/>
<path fill-rule="evenodd" clip-rule="evenodd" d="M19.6777 20.9236C19.5132 20.9236 19.3476 20.8782 19.1959 20.7836L14.4648 17.7849C14.1812 17.6036 14.0055 17.2769 14.0055 16.9249V10.4609C14.0055 9.90894 14.4272 9.46094 14.9467 9.46094C15.4675 9.46094 15.8879 9.90894 15.8879 10.4609V16.3569L20.1608 19.0636C20.6063 19.3476 20.7531 19.9609 20.4872 20.4356C20.3102 20.749 19.9977 20.9236 19.6777 20.9236Z" fill="#F5484A"/>
</svg>
