<svg width="24" height="24" viewBox="0 0 24 24" fill="none" xmlns="http://www.w3.org/2000/svg">
<path d="M21.9001 16.7793C22.6272 15.2873 23.0034 13.6488 22.9999 11.989C22.9966 9.56661 22.1951 7.21278 20.7194 5.29171C19.2437 3.37064 17.1761 1.98941 14.8364 1.36172H14.7835C13.0679 0.910037 11.2684 0.880927 9.5391 1.27688C7.80979 1.67283 6.20223 2.48205 4.8541 3.63522L4.71663 3.76212C3.04267 5.23949 1.85853 7.1918 1.32193 9.35902C0.785322 11.5262 0.92172 13.8055 1.71295 15.8933C2.50419 17.981 3.91271 19.7782 5.75091 21.0454C7.58912 22.3126 9.76976 22.9897 12.0024 22.9865H12.2562C14.2531 22.9371 16.1991 22.3464 17.8864 21.2774C19.5737 20.2084 20.9391 18.7012 21.8367 16.9167L21.9001 16.7793ZM21.3079 11.989C21.306 13.0969 21.1091 14.1958 20.7263 15.2354L15.8198 12.2217C15.6183 12.0927 15.3908 12.0096 15.1536 11.9785L12.7426 11.6612C12.433 11.6212 12.1182 11.6671 11.8329 11.7939C11.5475 11.9207 11.3025 12.1236 11.1247 12.3803H10.2153L9.81351 11.5449C9.70095 11.3142 9.53797 11.1118 9.33663 10.9525C9.1353 10.7933 8.90075 10.6813 8.65033 10.6249L7.95241 10.4769L8.22735 9.853C8.28901 9.69904 8.39565 9.56724 8.53335 9.4748C8.67106 9.38237 8.83343 9.3336 8.99928 9.33485H10.7018C10.9866 9.33358 11.2666 9.26086 11.516 9.12336L12.8061 8.4043C12.9199 8.34259 13.0264 8.26808 13.1233 8.18224L15.9678 5.60207C16.2155 5.38497 16.3929 5.09914 16.4776 4.78092C16.5624 4.4627 16.5506 4.12648 16.4437 3.81499C17.9148 4.61396 19.1431 5.79497 19.9991 7.23355C20.8552 8.67213 21.3074 10.315 21.3079 11.989ZM2.69691 11.989C2.6945 10.5299 3.03881 9.091 3.70148 7.79098L4.80123 10.7413C4.9018 11.0055 5.0666 11.2406 5.28075 11.4252C5.49491 11.6098 5.75167 11.7382 6.02786 11.7987L6.60946 11.9256H6.62003L7.88896 12.2005C8.01457 12.2259 8.13252 12.2803 8.23347 12.3592C8.33443 12.4381 8.4156 12.5395 8.47056 12.6552L8.69262 13.1205C8.83254 13.4053 9.04925 13.6453 9.31831 13.8134C9.58737 13.9816 9.89806 14.0712 10.2153 14.0722H10.3422L9.528 15.891C9.39316 16.1933 9.34935 16.5283 9.40193 16.8551C9.45452 17.1819 9.60122 17.4863 9.82409 17.731L11.5266 19.5709C11.6142 19.6689 11.6787 19.7854 11.7154 19.9117C11.752 20.038 11.7597 20.1709 11.7381 20.3006L11.5477 21.284C9.16212 21.1647 6.91347 20.1336 5.26631 18.4038C3.61916 16.674 2.69935 14.3776 2.69691 11.989Z" fill="#F5484A"/>
</svg>
