<svg width="32" height="32" viewBox="0 0 32 32" fill="none" xmlns="http://www.w3.org/2000/svg">
<mask id="mask0_8_12" style="mask-type:luminance" maskUnits="userSpaceOnUse" x="4" y="2" width="23" height="29">
<path fill-rule="evenodd" clip-rule="evenodd" d="M4 2.66666H26.7184V30.4622H4V2.66666Z" fill="white"/>
</mask>
<g mask="url(#mask0_8_12)">
<path fill-rule="evenodd" clip-rule="evenodd" d="M11.1227 4.66666C7.724 4.66666 6 5.97598 6 8.56131V28.1933C6 28.3187 6.072 28.3867 6.132 28.4213C6.192 28.4587 6.28667 28.4853 6.396 28.424L14.9053 23.6507C15.2093 23.4813 15.5813 23.48 15.8867 23.652L24.3227 28.4173C24.4333 28.4813 24.528 28.452 24.588 28.416C24.648 28.38 24.7187 28.312 24.7187 28.1867V8.80531C24.7187 7.78266 24.7187 4.66666 19.6013 4.66666H11.1227ZM6.26533 30.4627C5.872 30.4627 5.47867 30.3573 5.12133 30.1467C4.41867 29.7373 4 29.0053 4 28.1933V8.56131C4 4.81466 6.596 2.66666 11.1227 2.66666H19.6013C24.124 2.66666 26.7187 4.90531 26.7187 8.80531V28.1867C26.7187 29 26.3 29.732 25.596 30.1413C24.8947 30.552 24.0493 30.56 23.34 30.16L15.3933 25.6707L7.37333 30.1693C7.02667 30.364 6.64667 30.4627 6.26533 30.4627Z" fill="white"/>
</g>
<path fill-rule="evenodd" clip-rule="evenodd" d="M20.1854 13.638H10.4281C9.87613 13.638 9.42813 13.19 9.42813 12.638C9.42813 12.086 9.87613 11.638 10.4281 11.638H20.1854C20.7374 11.638 21.1854 12.086 21.1854 12.638C21.1854 13.19 20.7374 13.638 20.1854 13.638Z" fill="white"/>
</svg>
