<svg width="32" height="32" viewBox="0 0 32 32" fill="none" xmlns="http://www.w3.org/2000/svg">
<path fill-rule="evenodd" clip-rule="evenodd" d="M16.0031 11.334C14.7921 11.334 13.807 12.3807 13.807 13.6687C13.807 14.9553 14.7921 16.0007 16.0031 16.0007C17.214 16.0007 18.1991 14.9553 18.1991 13.6687C18.1991 12.3807 17.214 11.334 16.0031 11.334ZM16.0031 18.0007C13.7543 18.0007 11.9246 16.058 11.9246 13.6687C11.9246 11.278 13.7543 9.33398 16.0031 9.33398C18.2518 9.33398 20.0815 11.278 20.0815 13.6687C20.0815 16.058 18.2518 18.0007 16.0031 18.0007Z" fill="#F5484A"/>
<mask id="mask0_13_5" style="mask-type:luminance" maskUnits="userSpaceOnUse" x="5" y="2" width="22" height="27">
<path fill-rule="evenodd" clip-rule="evenodd" d="M5.6489 2.66699H26.3541V28.667H5.6489V2.66699Z" fill="white"/>
</mask>
<g mask="url(#mask0_13_5)">
<path fill-rule="evenodd" clip-rule="evenodd" d="M16.0018 4.66699C11.3311 4.66699 7.53125 8.74299 7.53125 13.751C7.53125 20.123 14.5888 26.331 16.0018 26.6616C17.4148 26.3296 24.4725 20.1216 24.4725 13.751C24.4725 8.74299 20.6726 4.66699 16.0018 4.66699ZM16.0018 28.667C13.7505 28.667 5.6489 21.2644 5.6489 13.751C5.6489 7.63899 10.2933 2.66699 16.0018 2.66699C21.7103 2.66699 26.3548 7.63899 26.3548 13.751C26.3548 21.2644 18.2531 28.667 16.0018 28.667Z" fill="#F5484A"/>
</g>
</svg>
