<svg width="24" height="24" viewBox="0 0 24 24" fill="none" xmlns="http://www.w3.org/2000/svg">
<path d="M22.6585 6.24744C23.0741 6.61112 23.1163 7.24288 22.7526 7.65852L14.0026 17.6585C13.8231 17.8636 13.5677 17.9866 13.2955 17.999C13.0232 18.0114 12.7577 17.9121 12.5603 17.7242L10.043 15.3266L8.00258 17.6585C7.82311 17.8636 7.56771 17.9866 7.29546 17.999C7.02321 18.0114 6.7577 17.9121 6.56035 17.7242L1.31035 12.7242C0.910416 12.3433 0.894978 11.7103 1.27586 11.3104C1.65675 10.9104 2.28973 10.895 2.68966 11.2759L7.18431 15.5565L8.5934 13.9461L7.31035 12.7242C6.91042 12.3433 6.89498 11.7103 7.27586 11.3104C7.65675 10.9104 8.28973 10.895 8.68966 11.2759L13.1843 15.5565L21.2474 6.34151C21.6111 5.92587 22.2429 5.88375 22.6585 6.24744Z" fill="#212121"/>
<path d="M16.7526 7.65852C17.1163 7.24288 17.0741 6.61112 16.6585 6.24744C16.2429 5.88375 15.6111 5.92587 15.2474 6.34151L11.7474 10.3415C11.3837 10.7571 11.4259 11.3889 11.8415 11.7526C12.2571 12.1163 12.8889 12.0742 13.2526 11.6585L16.7526 7.65852Z" fill="#212121"/>
</svg>
