<svg width="25" height="24" viewBox="0 0 25 24" fill="none" xmlns="http://www.w3.org/2000/svg">
<path fill-rule="evenodd" clip-rule="evenodd" d="M2.49988 12C2.49988 6.48 6.96988 2 12.4999 2C18.0199 2 22.4999 6.48 22.4999 12C22.4999 17.53 18.0199 22 12.4999 22C6.96988 22 2.49988 17.53 2.49988 12ZM14.7299 13.83L16.3499 8.71C16.4599 8.36 16.1399 8.03 15.7899 8.14L10.6699 9.74C10.4599 9.81 10.2899 9.97 10.2299 10.18L8.62988 15.31C8.51988 15.65 8.84988 15.98 9.18988 15.87L14.2899 14.27C14.4999 14.21 14.6699 14.04 14.7299 13.83Z" fill="#F5484A"/>
</svg>
