<svg width="24" height="24" viewBox="0 0 24 24" fill="none" xmlns="http://www.w3.org/2000/svg">
<path fill-rule="evenodd" clip-rule="evenodd" d="M12.2473 22.0001C10.8923 22.0001 9.57133 21.9851 8.26433 21.9581C6.59233 21.9251 5.43533 20.8411 5.24633 19.1291C4.93133 16.2891 4.39233 9.59515 4.38733 9.52815C4.35333 9.11515 4.66133 8.75315 5.07433 8.72015C5.48133 8.70915 5.84933 8.99515 5.88233 9.40715C5.88733 9.47515 6.42533 16.1461 6.73733 18.9641C6.84433 19.9371 7.36933 20.4391 8.29533 20.4581C10.7953 20.5111 13.3463 20.5141 16.0963 20.4641C17.0803 20.4451 17.6123 19.9531 17.7223 18.9571C18.0323 16.1631 18.5723 9.47515 18.5783 9.40715C18.6113 8.99515 18.9763 8.70715 19.3853 8.72015C19.7983 8.75415 20.1063 9.11515 20.0733 9.52815C20.0673 9.59615 19.5253 16.3071 19.2133 19.1221C19.0193 20.8691 17.8653 21.9321 16.1233 21.9641C14.7903 21.9871 13.5043 22.0001 12.2473 22.0001Z" fill="#F75555"/>
<path fill-rule="evenodd" clip-rule="evenodd" d="M20.709 6.98926H3.75098C3.33698 6.98926 3.00098 6.65326 3.00098 6.23926C3.00098 5.82526 3.33698 5.48926 3.75098 5.48926H20.709C21.123 5.48926 21.459 5.82526 21.459 6.23926C21.459 6.65326 21.123 6.98926 20.709 6.98926Z" fill="#F75555"/>
<path fill-rule="evenodd" clip-rule="evenodd" d="M17.4416 6.989C16.3036 6.989 15.3156 6.178 15.0916 5.062L14.8486 3.846C14.7976 3.661 14.5866 3.5 14.3466 3.5H10.1136C9.87355 3.5 9.66255 3.661 9.60155 3.892L9.36855 5.062C9.14555 6.178 8.15655 6.989 7.01855 6.989C6.60455 6.989 6.26855 6.653 6.26855 6.239C6.26855 5.825 6.60455 5.489 7.01855 5.489C7.44455 5.489 7.81455 5.185 7.89855 4.767L8.14155 3.551C8.38855 2.619 9.19555 2 10.1136 2H14.3466C15.2646 2 16.0716 2.619 16.3086 3.506L16.5626 4.767C16.6456 5.185 17.0156 5.489 17.4416 5.489C17.8556 5.489 18.1916 5.825 18.1916 6.239C18.1916 6.653 17.8556 6.989 17.4416 6.989Z" fill="#F75555"/>
</svg>
