<svg width="86" height="86" viewBox="0 0 86 86" fill="none" xmlns="http://www.w3.org/2000/svg">
<g filter="url(#filter0_d_122_11575)">
<rect x="20" y="16" width="38" height="38" rx="19" fill="#F5484A"/>
<path d="M44.25 34.25H39.75V29.75C39.75 29.5511 39.671 29.3603 39.5303 29.2197C39.3897 29.079 39.1989 29 39 29C38.8011 29 38.6103 29.079 38.4697 29.2197C38.329 29.3603 38.25 29.5511 38.25 29.75V34.25H33.75C33.5511 34.25 33.3603 34.329 33.2197 34.4697C33.079 34.6103 33 34.8011 33 35C33 35.1989 33.079 35.3897 33.2197 35.5303C33.3603 35.671 33.5511 35.75 33.75 35.75H38.25V40.25C38.25 40.4489 38.329 40.6397 38.4697 40.7803C38.6103 40.921 38.8011 41 39 41C39.1989 41 39.3897 40.921 39.5303 40.7803C39.671 40.6397 39.75 40.4489 39.75 40.25V35.75H44.25C44.4489 35.75 44.6397 35.671 44.7803 35.5303C44.921 35.3897 45 35.1989 45 35C45 34.8011 44.921 34.6103 44.7803 34.4697C44.6397 34.329 44.4489 34.25 44.25 34.25Z" fill="white"/>
</g>
<defs>
<filter id="filter0_d_122_11575" x="0" y="0" width="86" height="86" filterUnits="userSpaceOnUse" color-interpolation-filters="sRGB">
<feFlood flood-opacity="0" result="BackgroundImageFix"/>
<feColorMatrix in="SourceAlpha" type="matrix" values="0 0 0 0 0 0 0 0 0 0 0 0 0 0 0 0 0 0 127 0" result="hardAlpha"/>
<feOffset dx="4" dy="8"/>
<feGaussianBlur stdDeviation="12"/>
<feComposite in2="hardAlpha" operator="out"/>
<feColorMatrix type="matrix" values="0 0 0 0 0.960784 0 0 0 0 0.282353 0 0 0 0 0.290196 0 0 0 0.25 0"/>
<feBlend mode="normal" in2="BackgroundImageFix" result="effect1_dropShadow_122_11575"/>
<feBlend mode="normal" in="SourceGraphic" in2="effect1_dropShadow_122_11575" result="shape"/>
</filter>
</defs>
</svg>
