<svg width="24" height="24" viewBox="0 0 24 24" fill="none" xmlns="http://www.w3.org/2000/svg">
<path d="M13.4102 11.9999L17.2102 8.2099C17.3039 8.11693 17.3783 8.00633 17.4291 7.88447C17.4798 7.76261 17.506 7.63191 17.506 7.4999C17.506 7.36788 17.4798 7.23718 17.4291 7.11532C17.3783 6.99346 17.3039 6.88286 17.2102 6.7899L12.7102 2.2899C12.6151 2.19886 12.5029 2.12749 12.3802 2.0799C12.1367 1.97988 11.8636 1.97988 11.6202 2.0799C11.3758 2.18137 11.1817 2.37555 11.0802 2.6199C11.0289 2.74012 11.0018 2.86922 11.0002 2.9999V9.5899L8.21019 6.7899C8.11695 6.69666 8.00626 6.6227 7.88443 6.57224C7.76261 6.52178 7.63204 6.4958 7.50019 6.4958C7.36833 6.4958 7.23776 6.52178 7.11594 6.57224C6.99411 6.6227 6.88342 6.69666 6.79019 6.7899C6.69695 6.88313 6.62299 6.99383 6.57253 7.11565C6.52207 7.23747 6.49609 7.36804 6.49609 7.4999C6.49609 7.63176 6.52207 7.76232 6.57253 7.88415C6.62299 8.00597 6.69695 8.11666 6.79019 8.2099L10.5902 11.9999L6.79019 15.7899C6.69695 15.8831 6.62299 15.9938 6.57253 16.1156C6.52207 16.2375 6.49609 16.368 6.49609 16.4999C6.49609 16.6318 6.52207 16.7623 6.57253 16.8841C6.62299 17.006 6.69695 17.1167 6.79019 17.2099C6.88342 17.3031 6.99411 17.3771 7.11594 17.4276C7.23776 17.478 7.36833 17.504 7.50019 17.504C7.63204 17.504 7.76261 17.478 7.88443 17.4276C8.00626 17.3771 8.11695 17.3031 8.21019 17.2099L11.0002 14.4099V20.9999C11.0018 21.1306 11.0289 21.2597 11.0802 21.3799C11.1817 21.6242 11.3758 21.8184 11.6202 21.9199C11.7399 21.9728 11.8693 22.0001 12.0002 22.0001C12.1311 22.0001 12.2605 21.9728 12.3802 21.9199C12.5029 21.8723 12.6151 21.8009 12.7102 21.7099L17.2102 17.2099C17.3039 17.1169 17.3783 17.0063 17.4291 16.8845C17.4798 16.7626 17.506 16.6319 17.506 16.4999C17.506 16.3679 17.4798 16.2372 17.4291 16.1153C17.3783 15.9935 17.3039 15.8829 17.2102 15.7899L13.4102 11.9999ZM13.0002 5.4099L15.0902 7.4999L13.0002 9.5899V5.4099ZM13.0002 18.5899V14.4099L15.0902 16.4999L13.0002 18.5899Z" fill="#212121"/>
</svg>
