<svg width="25" height="24" viewBox="0 0 25 24" fill="none" xmlns="http://www.w3.org/2000/svg">
<mask id="mask0_122_11579" style="mask-type:luminance" maskUnits="userSpaceOnUse" x="3" y="2" width="18" height="20">
<path fill-rule="evenodd" clip-rule="evenodd" d="M3.50024 2.01172H20.5529V21.8652H3.50024V2.01172Z" fill="white"/>
</mask>
<g mask="url(#mask0_122_11579)">
<path fill-rule="evenodd" clip-rule="evenodd" d="M8.07335 3.51172C6.41635 3.51172 5.04035 4.85372 5.00135 6.50872V17.2037C4.96435 18.9167 6.31435 20.3277 8.01035 20.3657H16.0743C17.7433 20.2967 19.0653 18.9097 19.0533 17.2097V8.33972L14.4183 3.51172H8.08535H8.07335ZM8.08535 21.8657H7.97635C5.45435 21.8087 3.44635 19.7107 3.50135 17.1877V6.49072C3.55935 4.00972 5.60835 2.01172 8.07135 2.01172H8.08835H14.7383C14.9423 2.01172 15.1373 2.09472 15.2793 2.24172L20.3443 7.51872C20.4783 7.65772 20.5533 7.84472 20.5533 8.03772V17.2037C20.5713 19.7127 18.6173 21.7627 16.1043 21.8647L8.08535 21.8657Z" fill="#9E9E9E"/>
</g>
<path fill-rule="evenodd" clip-rule="evenodd" d="M14.2887 16.1084H8.88867C8.47467 16.1084 8.13867 15.7724 8.13867 15.3584C8.13867 14.9444 8.47467 14.6084 8.88867 14.6084H14.2887C14.7027 14.6084 15.0387 14.9444 15.0387 15.3584C15.0387 15.7724 14.7027 16.1084 14.2887 16.1084Z" fill="#9E9E9E"/>
<path fill-rule="evenodd" clip-rule="evenodd" d="M12.2437 12.3564H8.8877C8.4737 12.3564 8.1377 12.0204 8.1377 11.6064C8.1377 11.1924 8.4737 10.8564 8.8877 10.8564H12.2437C12.6577 10.8564 12.9937 11.1924 12.9937 11.6064C12.9937 12.0204 12.6577 12.3564 12.2437 12.3564Z" fill="#9E9E9E"/>
<path fill-rule="evenodd" clip-rule="evenodd" d="M19.7985 8.984H17.0435C15.2135 8.979 13.7255 7.487 13.7255 5.659V2.75C13.7255 2.336 14.0615 2 14.4755 2C14.8895 2 15.2255 2.336 15.2255 2.75V5.659C15.2255 6.663 16.0425 7.481 17.0455 7.484H19.7985C20.2125 7.484 20.5485 7.82 20.5485 8.234C20.5485 8.648 20.2125 8.984 19.7985 8.984Z" fill="#9E9E9E"/>
</svg>
