<svg width="60" height="60" viewBox="0 0 60 60" fill="none" xmlns="http://www.w3.org/2000/svg">
<path fill-rule="evenodd" clip-rule="evenodd" d="M22.25 5H37.675C44.45 5 49.925 7.675 50 14.475V52.425C50 52.85 49.9 53.275 49.7 53.65C49.375 54.25 48.825 54.7 48.15 54.9C47.5 55.1 46.775 55 46.175 54.65L29.975 46.55L13.75 54.65C13.3775 54.8475 12.95 54.975 12.525 54.975C11.125 54.975 10 53.825 10 52.425V14.475C10 7.675 15.5 5 22.25 5ZM20.55 24.05H39.375C40.45 24.05 41.325 23.1725 41.325 22.075C41.325 20.975 40.45 20.1 39.375 20.1H20.55C19.475 20.1 18.6 20.975 18.6 22.075C18.6 23.1725 19.475 24.05 20.55 24.05Z" fill="white"/>
</svg>
