<svg width="32" height="32" viewBox="0 0 32 32" fill="none" xmlns="http://www.w3.org/2000/svg">
<path fill-rule="evenodd" clip-rule="evenodd" d="M11.8661 2.66672H20.0928C23.7061 2.66672 26.6261 4.09337 26.6661 7.72005V27.96C26.6661 28.1867 26.6128 28.4135 26.5061 28.6135C26.3328 28.9335 26.0395 29.1735 25.6795 29.28C25.3328 29.3867 24.9461 29.3335 24.6261 29.1467L15.9861 24.8267L7.33282 29.1467C7.13415 29.252 6.90615 29.32 6.67947 29.32C5.93282 29.32 5.33282 28.7067 5.33282 27.96V7.72005C5.33282 4.09337 8.26615 2.66672 11.8661 2.66672ZM10.9595 12.8267H20.9995C21.5728 12.8267 22.0395 12.3587 22.0395 11.7734C22.0395 11.1867 21.5728 10.72 20.9995 10.72H10.9595C10.3861 10.72 9.91947 11.1867 9.91947 11.7734C9.91947 12.3587 10.3861 12.8267 10.9595 12.8267Z" fill="white"/>
</svg>
