<svg width="32" height="32" viewBox="0 0 32 32" fill="none" xmlns="http://www.w3.org/2000/svg">
<path fill-rule="evenodd" clip-rule="evenodd" d="M15.8613 16.8247H15.9015C19.5759 16.8247 22.5638 13.65 22.5638 9.74602C22.5638 5.84202 19.5759 2.66602 15.9015 2.66602C12.2259 2.66602 9.2367 5.84202 9.2367 9.74202C9.22417 13.6353 12.1945 16.8127 15.8613 16.8247ZM11.0287 9.74602C11.0287 6.89134 13.2148 4.57002 15.9015 4.57002C18.587 4.57002 20.7718 6.89134 20.7718 9.74602C20.7718 12.5993 18.587 14.922 15.9015 14.922H15.8651C13.1896 14.9113 11.0199 12.5913 11.0287 9.74602Z" fill="#F5484A"/>
<path fill-rule="evenodd" clip-rule="evenodd" d="M5.9614 24.2304C5.9614 29.1598 13.4431 29.1598 15.9015 29.1598C20.167 29.1598 25.8391 28.6518 25.8391 24.2572C25.8391 19.3278 18.3598 19.3278 15.9015 19.3278C11.6348 19.3278 5.9614 19.8358 5.9614 24.2304ZM7.84375 24.2304C7.84375 22.3038 10.5543 21.3278 15.9015 21.3278C21.2474 21.3278 23.9567 22.3132 23.9567 24.2572C23.9567 26.1838 21.2474 27.1598 15.9015 27.1598C10.5543 27.1598 7.84375 26.1744 7.84375 24.2304Z" fill="#F5484A"/>
</svg>
