<svg width="28" height="28" viewBox="0 0 28 28" fill="none" xmlns="http://www.w3.org/2000/svg">
<mask id="mask0_241_12760" style="mask-type:luminance" maskUnits="userSpaceOnUse" x="3" y="2" width="21" height="25">
<path fill-rule="evenodd" clip-rule="evenodd" d="M3.5 2.33333H23.3786V26.6545H3.5V2.33333Z" fill="white"/>
</mask>
<g mask="url(#mask0_241_12760)">
<path fill-rule="evenodd" clip-rule="evenodd" d="M9.73209 4.08333C6.75826 4.08333 5.24976 5.229 5.24976 7.49116V24.6692C5.24976 24.7788 5.31276 24.8383 5.36526 24.8687C5.41776 24.9013 5.50059 24.9247 5.59626 24.871L13.0419 20.6943C13.3079 20.5462 13.6334 20.545 13.9006 20.6955L21.2821 24.8652C21.3789 24.9212 21.4618 24.8955 21.5143 24.864C21.5668 24.8325 21.6286 24.773 21.6286 24.6633V7.70466C21.6286 6.80983 21.6286 4.08333 17.1509 4.08333H9.73209ZM5.48192 26.6548C5.13776 26.6548 4.79359 26.5627 4.48092 26.3783C3.86609 26.0202 3.49976 25.3797 3.49976 24.6692V7.49116C3.49976 4.21283 5.77126 2.33333 9.73209 2.33333H17.1509C21.1083 2.33333 23.3786 4.29216 23.3786 7.70466V24.6633C23.3786 25.375 23.0123 26.0155 22.3963 26.3737C21.7826 26.733 21.0429 26.74 20.4223 26.39L13.4689 22.4618L6.45142 26.3982C6.14809 26.5685 5.81559 26.6548 5.48192 26.6548V26.6548Z" fill="#212121"/>
</g>
<path fill-rule="evenodd" clip-rule="evenodd" d="M17.6629 11.9332H9.12524C8.64224 11.9332 8.25024 11.5412 8.25024 11.0582C8.25024 10.5752 8.64224 10.1832 9.12524 10.1832H17.6629C18.1459 10.1832 18.5379 10.5752 18.5379 11.0582C18.5379 11.5412 18.1459 11.9332 17.6629 11.9332" fill="#212121"/>
</svg>
