<svg width="25" height="24" viewBox="0 0 25 24" fill="none" xmlns="http://www.w3.org/2000/svg">
<path fill-rule="evenodd" clip-rule="evenodd" d="M11.7114 11.2115L10.6644 14.5585L14.0104 13.5105L15.0584 10.1635L11.7114 11.2115ZM9.52039 16.4515C9.32439 16.4515 9.13239 16.3745 8.98939 16.2325C8.79239 16.0345 8.72039 15.7435 8.80439 15.4785L10.3974 10.3895C10.4704 10.1535 10.6544 9.97052 10.8884 9.89752L15.9774 8.30452C16.2444 8.21952 16.5344 8.29252 16.7324 8.48952C16.9294 8.68752 17.0014 8.97852 16.9174 9.24352L15.3254 14.3325C15.2524 14.5675 15.0674 14.7515 14.8334 14.8245L9.74439 16.4175C9.67039 16.4405 9.59439 16.4515 9.52039 16.4515Z" fill="#9E9E9E"/>
<mask id="mask0_122_9635" style="mask-type:luminance" maskUnits="userSpaceOnUse" x="2" y="2" width="22" height="21">
<path fill-rule="evenodd" clip-rule="evenodd" d="M2.5 2H23.2218V22.7217H2.5V2Z" fill="white"/>
</mask>
<g mask="url(#mask0_122_9635)">
<path fill-rule="evenodd" clip-rule="evenodd" d="M12.8608 3.5C7.97482 3.5 3.99982 7.476 3.99982 12.361C3.99982 17.247 7.97482 21.222 12.8608 21.222C17.7468 21.222 21.7218 17.247 21.7218 12.361C21.7218 7.476 17.7468 3.5 12.8608 3.5ZM12.8608 22.722C7.14782 22.722 2.49982 18.074 2.49982 12.361C2.49982 6.648 7.14782 2 12.8608 2C18.5738 2 23.2218 6.648 23.2218 12.361C23.2218 18.074 18.5738 22.722 12.8608 22.722Z" fill="#9E9E9E"/>
</g>
</svg>
