<svg width="28" height="28" viewBox="0 0 28 28" fill="none" xmlns="http://www.w3.org/2000/svg">
<path fill-rule="evenodd" clip-rule="evenodd" d="M14 4.08337C8.53187 4.08337 4.08337 8.53187 4.08337 14C4.08337 19.4682 8.53187 23.9167 14 23.9167C19.4682 23.9167 23.9167 19.4682 23.9167 14C23.9167 8.53187 19.4682 4.08337 14 4.08337M14 25.6667C7.56704 25.6667 2.33337 20.433 2.33337 14C2.33337 7.56704 7.56704 2.33337 14 2.33337C20.433 2.33337 25.6667 7.56704 25.6667 14C25.6667 20.433 20.433 25.6667 14 25.6667" fill="#212121"/>
<path fill-rule="evenodd" clip-rule="evenodd" d="M18.6062 15.1827C17.961 15.1827 17.4337 14.6612 17.4337 14.016C17.4337 13.3709 17.9505 12.8494 18.5945 12.8494H18.6062C19.2514 12.8494 19.7729 13.3709 19.7729 14.016C19.7729 14.6612 19.2514 15.1827 18.6062 15.1827" fill="#212121"/>
<path fill-rule="evenodd" clip-rule="evenodd" d="M13.9283 15.1827C13.2831 15.1827 12.757 14.6612 12.757 14.016C12.757 13.3709 13.2726 12.8494 13.9178 12.8494H13.9283C14.5735 12.8494 15.095 13.3709 15.095 14.016C15.095 14.6612 14.5735 15.1827 13.9283 15.1827" fill="#212121"/>
<path fill-rule="evenodd" clip-rule="evenodd" d="M9.25136 15.1827C8.60619 15.1827 8.07886 14.6612 8.07886 14.016C8.07886 13.3709 8.59569 12.8494 9.24086 12.8494H9.25136C9.89652 12.8494 10.418 13.3709 10.418 14.016C10.418 14.6612 9.89652 15.1827 9.25136 15.1827" fill="#212121"/>
</svg>
